<?xml version="1.0" standalone="no"?>
<!DOCTYPE svg PUBLIC "-//W3C//DTD SVG 20010904//EN"
 "http://www.w3.org/TR/2001/REC-SVG-20010904/DTD/svg10.dtd">
<svg version="1.0" xmlns="http://www.w3.org/2000/svg"
 width="750.000000pt" height="750.000000pt" viewBox="0 0 750.000000 750.000000"
 preserveAspectRatio="xMidYMid meet">

<g transform="translate(0.000000,750.000000) scale(0.100000,-0.100000)"
fill="#000000" stroke="none">
<path d="M1540 5794 l0 -1125 -22 15 c-31 22 -46 20 -90 -10 -49 -35 -85 -106
-69 -140 6 -13 15 -24 21 -24 17 0 11 -18 -19 -61 -17 -22 -31 -45 -33 -51 -2
-5 -28 5 -57 24 l-54 33 -141 0 c-134 0 -144 -1 -198 -28 -126 -62 -162 -168
-188 -551 -13 -190 -47 -383 -98 -561 -29 -102 -37 -147 -37 -210 0 -110 22
-145 119 -191 64 -30 240 -74 295 -74 20 0 21 -5 21 -84 0 -46 3 -91 6 -99 3
-9 35 -23 72 -33 37 -9 72 -22 78 -28 10 -10 74 -520 74 -587 0 -14 -18 -59
-41 -100 -54 -99 -85 -174 -120 -291 -33 -112 -157 -408 -171 -408 -5 0 -27 9
-48 20 -22 11 -40 19 -40 17 0 -25 -64 -287 -76 -310 -9 -18 -38 -55 -64 -82
-68 -73 -103 -130 -95 -154 10 -32 94 -100 133 -107 27 -5 38 -3 48 11 16 22
22 17 64 -44 37 -54 82 -85 145 -98 27 -5 -52 -10 -240 -13 -154 -3 1144 -5
2885 -5 l3165 0 -2787 2 c-1534 2 -2788 6 -2788 11 0 4 4 23 9 43 10 44 8 48
-44 79 -77 45 -112 79 -143 138 -34 63 -40 115 -18 145 12 15 14 13 21 -25 8
-41 9 -42 14 -13 4 26 6 22 17 -30 l13 -60 -4 55 c-3 30 -8 66 -11 78 -7 24
-7 24 24 8 39 -20 92 -22 74 -4 -7 7 -27 18 -45 25 l-32 11 33 12 c26 10 32
17 29 31 -3 12 2 23 13 29 26 14 33 40 17 64 -8 12 -14 25 -15 30 0 5 -16 18
-36 28 -24 12 -34 23 -29 31 4 7 82 125 174 264 216 325 268 413 278 465 6 26
9 -129 10 -399 l1 -443 158 0 c95 0 151 -4 143 -9 -11 -7 7 -43 86 -173 59
-98 104 -183 112 -213 7 -27 23 -74 36 -103 l24 -52 51 0 c61 0 127 30 140 65
8 22 14 24 67 22 53 -1 67 4 153 51 135 75 172 108 174 156 1 31 -4 42 -27 60
-27 19 -39 21 -168 18 -150 -4 -241 12 -253 44 -9 24 -2 27 28 13 20 -9 29
-10 38 -1 9 9 1 16 -31 30 l-43 19 32 12 c22 7 31 16 28 28 -4 22 -36 29 -52
13 -8 -9 -6 -11 11 -6 31 10 39 -12 8 -24 -35 -13 -48 -13 -38 3 4 6 8 19 8
27 0 13 241 15 2098 18 l2097 2 0 2950 0 2950 -2440 0 -2440 0 0 -1126z m4385
1056 c0 -18 -6 -26 -23 -28 -24 -4 -38 18 -28 44 3 9 15 14 28 12 17 -2 23
-10 23 -28z m150 0 c0 -18 -6 -26 -23 -28 -24 -4 -38 18 -28 44 3 9 15 14 28
12 17 -2 23 -10 23 -28z m145 15 c10 -12 10 -18 0 -30 -7 -8 -18 -15 -25 -15
-7 0 -18 7 -25 15 -10 12 -10 18 0 30 7 8 18 15 25 15 7 0 18 -7 25 -15z m180
-240 l0 -155 -385 0 -385 0 0 50 c0 28 -6 66 -14 85 -28 66 -16 65 -610 65
-323 0 -545 -4 -560 -10 -41 -15 -66 -66 -66 -132 l0 -58 -80 0 -80 0 0 66 c0
62 -2 68 -34 100 l-34 34 -552 0 -552 0 -34 -34 c-32 -32 -34 -38 -34 -100 l0
-66 -35 0 -35 0 0 66 c0 62 -2 68 -34 100 l-34 34 -552 0 -552 0 -34 -34 c-32
-32 -34 -38 -34 -100 l0 -66 -60 0 -60 0 0 155 0 155 2425 0 2425 0 0 -155z
m-840 20 c41 -21 50 -43 50 -124 l0 -71 400 0 400 0 -2 -2707 -3 -2708 -2083
-3 -2083 -2 27 49 c31 58 27 77 -18 89 -36 10 -58 -5 -58 -41 0 -10 -4 -15
-10 -12 -5 3 -10 15 -10 26 0 23 -3 23 -41 4 -29 -15 -30 -15 -40 12 -26 70
-99 352 -108 421 -6 42 -15 145 -21 227 -6 91 -18 177 -30 220 -22 78 -110
460 -110 479 0 8 25 16 68 22 l67 9 5 40 5 40 79 7 c43 4 80 9 82 11 9 8 -28
181 -65 313 -31 108 -111 444 -111 467 0 2 61 50 135 106 74 56 160 125 191
153 51 47 55 54 50 84 -6 30 -3 35 62 82 42 30 74 62 82 81 l12 31 1874 0
1874 0 0 608 0 608 -497 159 c-274 87 -616 196 -761 242 -157 50 -271 81 -283
78 -11 -4 -19 -2 -19 6 0 6 -25 40 -55 75 -51 58 -58 62 -83 54 -23 -8 -485
-110 -498 -110 -2 0 -4 -29 -4 -65 l0 -65 -32 2 c-26 1 -1502 -288 -1570 -308
-17 -5 -18 -39 -18 -528 l0 -522 -50 -18 c-62 -22 -75 -40 -96 -135 -19 -83
-28 -95 -119 -148 -73 -42 -234 -118 -239 -112 -2 2 -7 37 -11 77 l-7 72 105
0 104 0 5 283 5 284 48 44 c28 26 60 46 79 49 l31 5 -3 68 c-2 62 0 72 28 110
23 33 30 54 32 97 2 38 8 59 20 68 24 17 34 112 16 148 -7 16 -23 30 -35 32
-11 2 -45 27 -75 56 -45 46 -65 57 -136 80 -46 14 -89 26 -97 26 -12 0 -12 6
-4 27 25 66 -32 169 -107 193 -60 20 -193 -26 -269 -93 -36 -32 -40 -39 -40
-84 0 -54 22 -90 79 -130 l32 -23 -38 -76 c-32 -64 -38 -86 -38 -139 0 -36 -5
-67 -11 -71 -10 -6 -9 -36 6 -94 5 -20 -3 -34 -34 -70 l-40 -45 -1 893 0 892
1425 0 1425 0 0 71 c0 80 9 102 48 123 41 23 1069 23 1112 1z m-2835 -85 c4
-7 -138 -10 -419 -10 -277 0 -426 3 -426 10 0 7 146 10 419 10 269 0 422 -4
426 -10z m1305 0 c0 -7 -149 -10 -426 -10 -281 0 -423 3 -419 10 4 6 157 10
426 10 273 0 419 -3 419 -10z m520 -1690 l0 -900 -255 0 -255 0 0 844 0 845
58 11 c50 11 443 97 450 99 1 1 2 -404 2 -899z m69 833 l41 -48 0 -842 0 -843
-50 0 -50 0 0 890 c0 537 4 890 9 890 5 0 28 -21 50 -47z m829 -302 c394 -126
727 -232 740 -236 l22 -6 0 -489 0 -489 -32 5 c-18 2 -118 8 -223 14 -104 6
-422 24 -705 40 -283 16 -518 30 -522 30 -5 0 -8 306 -8 680 0 374 3 680 6
680 3 0 328 -103 722 -229z m-1478 -511 l0 -640 -52 0 c-29 0 -341 -11 -693
-25 -352 -14 -650 -25 -663 -25 l-22 0 20 40 c19 38 23 40 65 40 l45 0 0 50
c0 38 -4 50 -15 50 -9 0 -15 9 -15 25 0 24 -2 25 -62 25 -91 0 -108 -7 -108
-41 0 -19 -5 -29 -15 -29 -11 0 -15 -12 -15 -45 l0 -45 46 0 c25 0 44 -3 42
-7 -30 -62 -31 -63 -70 -63 l-38 0 0 510 c0 281 3 510 8 510 4 1 349 70 767
155 418 84 763 153 768 154 4 1 7 -287 7 -639z m-2042 576 c37 -19 72 -84 72
-135 0 -33 -7 -49 -32 -77 -39 -41 -146 -84 -212 -84 -81 0 -166 90 -151 160
20 90 237 181 323 136z m380 -605 c-3 -47 -10 -66 -37 -100 -32 -40 -32 -42
-22 -91 15 -69 15 -68 -21 -75 -18 -4 -52 -26 -76 -48 l-42 -42 2 190 3 189
65 17 c36 9 80 18 99 18 l33 1 -4 -59z m-764 -224 c83 -86 236 -298 236 -328
0 -3 -19 13 -42 36 -35 35 -54 45 -103 55 -63 13 -124 41 -212 97 -43 27 -53
38 -53 60 0 46 71 132 109 133 8 0 38 -24 65 -53z m1114 -309 c-3 -29 -7 -33
-36 -36 -32 -3 -33 -2 -22 18 9 17 9 25 0 34 -11 11 -25 -1 -48 -41 -4 -7 -26
-15 -50 -19 l-42 -7 0 36 c0 34 2 36 38 40 20 2 65 4 100 5 l63 2 -3 -32z
m-1496 -13 c61 -15 131 -47 161 -73 14 -13 17 -33 17 -131 -1 -358 -33 -718
-90 -1012 -45 -233 -56 -245 -225 -243 -115 2 -214 19 -307 54 -80 30 -108 54
-108 94 0 49 34 170 86 302 65 165 90 301 109 584 27 410 29 421 106 440 44
11 178 3 251 -15z m4298 -100 c344 -19 653 -38 688 -41 l62 -6 0 -99 0 -99
-745 0 -745 0 0 145 0 145 58 -5 c31 -3 338 -21 682 -40z m-1490 -110 l0 -135
-741 0 -740 0 20 26 c24 30 26 63 7 115 -11 32 -11 39 3 57 15 19 41 21 636
41 341 12 631 23 645 25 14 2 58 4 98 5 l72 1 0 -135z m-1527 69 c3 -3 1 -18
-4 -33 -9 -24 -8 -25 6 -7 8 11 15 26 15 33 0 7 5 13 10 13 11 0 -8 -41 -34
-75 -13 -16 -15 -17 -10 -2 7 21 5 21 -37 3 l-33 -14 42 -21 c23 -11 43 -21
46 -21 2 0 13 16 25 36 12 19 25 33 30 30 18 -12 21 -69 5 -100 -9 -17 -27
-52 -40 -78 -17 -33 -42 -60 -87 -92 -36 -25 -67 -46 -69 -46 -3 0 -21 24 -42
54 -37 53 -37 55 -20 80 9 15 23 57 31 94 18 86 28 100 93 127 63 27 65 27 73
19z m-1663 -438 c0 -10 -7 -66 -16 -125 -15 -104 -29 -150 -118 -406 -25 -71
-46 -148 -46 -170 -1 -37 -2 -39 -15 -21 -24 32 -19 151 10 243 13 43 33 116
44 163 17 73 27 128 56 305 5 28 8 30 45 30 32 0 40 -4 40 -19z m1430 -46 c20
-39 20 -39 0 -50 -16 -9 -23 -5 -44 27 -23 34 -24 37 -8 49 25 20 30 18 52
-26z m-850 -1205 c0 -5 -5 -3 -10 5 -5 8 -10 20 -10 25 0 6 5 3 10 -5 5 -8 10
-19 10 -25z m59 -130 c0 -5 -6 1 -14 15 -8 14 -14 30 -14 35 0 6 6 -1 14 -15
8 -14 14 -29 14 -35z m60 -130 c0 -5 -6 1 -14 15 -8 14 -14 30 -14 35 0 6 6
-1 14 -15 8 -14 14 -29 14 -35z m35 -71 c3 -8 2 -12 -4 -9 -6 3 -10 10 -10 16
0 14 7 11 14 -7z m137 -379 c-3 -179 11 -224 154 -514 80 -163 103 -216 93
-223 -7 -4 -87 -7 -178 -5 l-165 2 -3 470 c-2 259 0 499 4 535 l6 65 45 -95
45 -95 -1 -140z m-534 -831 c-6 -7 -67 -23 -67 -19 0 9 55 33 63 28 5 -3 6 -7
4 -9z m1553 -180 c0 -37 -47 -79 -161 -141 -86 -48 -101 -53 -157 -53 -57 0
-62 -2 -74 -27 -26 -56 -154 -87 -178 -44 -15 28 -14 29 28 36 121 21 342 117
467 205 39 27 71 49 73 49 1 1 2 -11 2 -25z m-1946 -83 c44 -16 74 -37 115
-80 66 -68 132 -97 260 -115 68 -9 81 -14 69 -24 -11 -9 -35 -9 -99 -2 -135
17 -182 34 -220 80 -19 23 -47 55 -63 72 l-29 32 -18 -23 -18 -22 -43 19 c-41
18 -98 72 -98 92 0 5 5 21 12 35 l11 25 31 -33 c18 -20 55 -43 90 -56z"/>
<path d="M4788 6553 c116 -2 308 -2 425 0 116 1 21 2 -213 2 -234 0 -329 -1
-212 -2z"/>
<path d="M1766 6253 c-3 -3 -6 -55 -6 -115 0 -89 3 -108 15 -108 11 0 15 12
15 50 0 47 2 50 25 50 23 0 25 -3 25 -50 0 -38 4 -50 15 -50 13 0 15 17 13
110 -3 114 -21 156 -26 63 -3 -49 -5 -53 -28 -53 -22 0 -24 4 -24 49 0 47 -9
68 -24 54z"/>
<path d="M1915 6246 c-16 -11 -20 -29 -23 -88 -3 -86 11 -122 50 -126 41 -5
58 29 58 115 0 60 -4 77 -20 93 -24 24 -39 25 -65 6z m53 -105 c-3 -78 -5 -86
-23 -86 -18 0 -20 8 -23 84 -3 86 5 106 35 94 11 -4 13 -26 11 -92z"/>
<path d="M2017 6254 c-10 -11 3 -24 24 -24 18 0 19 -8 19 -100 0 -60 4 -100
10 -100 6 0 10 40 10 100 0 93 1 100 20 100 11 0 20 7 20 15 0 11 -12 15 -48
15 -27 0 -52 -3 -55 -6z"/>
<path d="M2140 6145 l0 -115 45 0 c25 0 45 5 45 10 0 6 -16 10 -35 10 -34 0
-35 1 -35 40 0 38 2 40 30 40 38 0 40 18 3 22 -24 3 -28 8 -31 41 -3 36 -3 37
32 37 25 0 36 4 36 15 0 11 -12 15 -45 15 l-45 0 0 -115z"/>
<path d="M2260 6145 l0 -115 45 0 c25 0 45 5 45 10 0 6 -16 10 -35 10 l-35 0
0 105 c0 63 -4 105 -10 105 -6 0 -10 -45 -10 -115z"/>
<path d="M2420 6145 l0 -115 34 0 c19 0 42 7 50 16 18 17 21 75 6 90 -8 8 -7
19 0 39 19 49 -11 85 -71 85 -18 0 -19 -8 -19 -115z m68 53 c-2 -25 -8 -34
-25 -36 -20 -3 -23 1 -23 32 0 32 3 36 26 36 23 0 25 -3 22 -32z m0 -70 c27
-27 7 -78 -30 -78 -15 0 -18 8 -18 45 0 37 3 45 18 45 10 0 23 -5 30 -12z"/>
<path d="M2559 6239 c-19 -19 -21 -30 -17 -105 3 -89 11 -104 54 -104 37 0 44
19 44 117 0 81 -2 94 -19 103 -28 14 -38 13 -62 -11z m49 -8 c9 -5 12 -31 10
-92 -3 -76 -5 -84 -23 -84 -18 0 -20 8 -23 79 -4 102 2 119 36 97z"/>
<path d="M2686 6244 c-12 -12 -16 -37 -16 -103 0 -94 8 -111 50 -111 42 0 50
17 50 111 0 93 -11 119 -50 119 -10 0 -26 -7 -34 -16z m52 -16 c12 -12 17
-134 6 -162 -3 -9 -14 -16 -24 -16 -24 0 -30 19 -30 99 0 60 10 91 30 91 3 0
11 -5 18 -12z"/>
<path d="M2800 6145 c0 -70 4 -115 10 -115 6 0 10 18 10 39 0 57 16 59 42 7
12 -26 28 -46 35 -46 9 0 4 19 -17 60 l-30 60 26 51 c14 28 23 54 20 57 -8 7
-8 7 -45 -58 l-31 -55 0 58 c0 31 -4 57 -10 57 -6 0 -10 -45 -10 -115z"/>
<path d="M2930 6145 c0 -70 4 -115 10 -115 6 0 10 45 10 115 0 70 -4 115 -10
115 -6 0 -10 -45 -10 -115z"/>
<path d="M2980 6145 c0 -135 18 -157 22 -27 l3 87 28 -87 c18 -57 33 -88 43
-88 11 0 14 21 14 109 0 130 -18 161 -22 39 l-3 -83 -28 83 c-42 121 -57 112
-57 -33z"/>
<path d="M3126 6238 c-19 -26 -22 -158 -6 -189 12 -22 59 -26 78 -7 7 7 12 34
12 60 0 41 -3 48 -20 48 -11 0 -20 -4 -20 -10 0 -5 5 -10 11 -10 6 0 9 -16 7
-37 -2 -30 -7 -38 -23 -38 -18 0 -20 8 -23 84 -2 46 1 88 6 93 15 15 42 -3 42
-28 0 -13 5 -24 10 -24 6 0 10 13 10 30 0 49 -57 68 -84 28z"/>
<path d="M1760 5800 l0 -80 438 2 437 3 3 78 3 77 -441 0 -440 0 0 -80z m860
5 l0 -65 -425 0 -425 0 0 65 0 65 425 0 425 0 0 -65z"/>
<path d="M2780 5800 l0 -80 440 0 440 0 0 80 0 80 -440 0 -440 0 0 -80z m868
3 l3 -63 -431 0 -430 0 0 65 0 65 428 -2 427 -3 3 -62z"/>
<path d="M4723 3660 c-36 -22 -63 -67 -63 -106 0 -53 113 -225 138 -210 22 14
111 158 117 190 20 103 -100 182 -192 126z m97 -80 c11 -11 20 -24 20 -30 0
-5 -9 -19 -20 -30 -11 -11 -24 -20 -30 -20 -5 0 -19 9 -30 20 -11 11 -20 25
-20 30 0 6 9 19 20 30 11 11 25 20 30 20 6 0 19 -9 30 -20z"/>
<path d="M5421 3636 l-43 -44 -89 30 c-72 24 -92 28 -104 18 -23 -19 -19 -26
43 -64 31 -20 64 -40 72 -45 12 -9 8 -17 -24 -50 -31 -32 -45 -39 -63 -35 -22
6 -53 -10 -53 -26 0 -5 14 -11 30 -15 22 -5 34 -16 45 -42 13 -30 17 -33 30
-23 8 7 15 24 15 39 0 18 13 39 39 65 l38 37 42 -70 c23 -39 46 -71 50 -71 5
0 14 7 21 16 11 13 9 30 -16 106 l-28 90 43 37 c33 28 42 43 39 61 -5 41 -38
36 -87 -14z"/>
<path d="M5741 3607 c-7 -31 -17 -46 -31 -50 -17 -4 -20 -13 -20 -71 0 -37 4
-66 10 -66 6 0 10 -13 10 -30 0 -27 3 -30 30 -30 27 0 30 3 30 30 l0 30 85 0
85 0 0 -30 c0 -27 3 -30 30 -30 26 0 30 4 30 26 0 14 7 32 15 40 15 16 21 88
9 118 -3 9 -16 16 -29 16 -18 0 -24 8 -31 43 l-9 42 -101 3 -101 3 -12 -44z
m200 -14 l6 -33 -93 0 c-98 0 -100 1 -88 46 5 20 12 22 87 20 l81 -1 7 -32z
m-155 -74 c20 -23 11 -51 -20 -57 -39 -8 -63 47 -28 67 24 14 26 14 48 -10z
m198 2 c33 -36 -18 -83 -52 -49 -17 17 -15 45 6 57 24 14 26 14 46 -8z m-84
-21 c0 -17 -7 -20 -43 -20 -36 0 -43 3 -43 20 0 17 7 20 43 20 36 0 43 -3 43
-20z"/>
<path d="M3010 3100 l0 -510 745 0 745 0 0 510 0 510 -745 0 -745 0 0 -510z
m1478 70 c-2 -276 -7 -431 -13 -433 -6 -1 -11 57 -13 156 l-3 157 -34 0 c-35
0 -35 0 -35 45 0 43 1 45 30 45 l31 0 -3 93 -3 92 -72 3 -73 3 0 -96 c0 -95 0
-95 25 -95 23 0 25 -4 25 -45 0 -45 0 -45 -35 -45 l-35 0 0 165 0 165 -525 0
-525 0 0 -165 0 -165 -36 0 -35 0 3 43 c3 38 6 42 31 45 l27 3 0 95 0 94 -75
0 -75 0 0 -95 0 -95 30 0 c29 0 30 -2 30 -45 l0 -45 -38 0 -38 0 0 -157 c1
-134 -1 -158 -14 -158 -13 0 -15 56 -18 433 l-2 432 735 0 735 0 -2 -430z
m-228 39 l0 -160 -22 7 c-13 3 -25 9 -28 11 -3 3 -5 48 -5 101 l0 97 -305 0
-306 0 4 -88 c3 -55 0 -93 -6 -99 -17 -17 -25 33 -20 115 l5 72 -152 0 -153 0
9 -23 c20 -52 4 -192 -22 -192 -5 0 -9 72 -9 160 l0 160 505 0 505 0 0 -161z
m-344 16 c11 -62 -3 -171 -21 -153 -20 19 -15 188 5 188 5 0 12 -16 16 -35z
m-361 -62 l0 -83 -130 0 -130 0 0 83 0 82 130 0 130 0 0 -82z m320 0 l0 -83
-130 0 -130 0 0 83 0 82 130 0 130 0 0 -82z m310 0 l0 -83 -130 0 -130 0 0 83
0 82 130 0 130 0 0 -82z m-1038 -85 c-2 -13 -4 -3 -4 22 0 25 2 35 4 23 2 -13
2 -33 0 -45z m1230 0 c-2 -13 -4 -5 -4 17 -1 22 1 32 4 23 2 -10 2 -28 0 -40z
m-889 -15 c-32 -2 -84 -2 -115 0 -32 2 -6 3 57 3 63 0 89 -1 58 -3z m320 0
c-32 -2 -84 -2 -115 0 -32 2 -6 3 57 3 63 0 89 -1 58 -3z m310 0 c-32 -2 -84
-2 -115 0 -32 2 -6 3 57 3 63 0 89 -1 58 -3z m123 -23 c17 -10 19 -23 19 -155
l0 -145 -505 0 -505 0 0 145 c0 127 2 145 18 154 24 14 946 15 973 1z m-1021
-175 l0 -125 -75 0 -75 0 0 125 0 125 75 0 75 0 0 -125z m1230 0 l0 -125 -80
0 -80 0 0 125 0 125 80 0 80 0 0 -125z m40 -200 l0 -55 -735 0 -735 0 0 55 0
55 735 0 735 0 0 -55z"/>
<path d="M3080 2930 l0 -40 65 0 65 0 0 40 0 40 -65 0 -65 0 0 -40z m110 0 c0
-29 -1 -30 -50 -30 -49 0 -50 1 -50 30 0 29 1 30 50 30 49 0 50 -1 50 -30z"/>
<path d="M3080 2820 l0 -40 65 0 65 0 0 40 0 40 -65 0 -65 0 0 -40z m110 0 c0
-29 -1 -30 -50 -30 -49 0 -50 1 -50 30 0 29 1 30 50 30 49 0 50 -1 50 -30z"/>
<path d="M4300 2930 l0 -40 65 0 65 0 0 40 0 40 -65 0 -65 0 0 -40z m120 0 c0
-29 -1 -30 -50 -30 -49 0 -50 1 -50 30 0 29 1 30 50 30 49 0 50 -1 50 -30z"/>
<path d="M4300 2820 l0 -40 65 0 65 0 0 40 0 40 -65 0 -65 0 0 -40z m120 0 c0
-29 -1 -30 -50 -30 -49 0 -50 1 -50 30 0 29 1 30 50 30 49 0 50 -1 50 -30z"/>
<path d="M5062 3103 c192 -2 504 -2 695 0 192 1 35 2 -347 2 -382 0 -539 -1
-348 -2z"/>
<path d="M5062 3003 c192 -2 504 -2 695 0 192 1 35 2 -347 2 -382 0 -539 -1
-348 -2z"/>
<path d="M5058 2893 c193 -2 511 -2 705 0 193 1 35 2 -353 2 -388 0 -546 -1
-352 -2z"/>
<path d="M5058 2783 c193 -2 511 -2 705 0 193 1 35 2 -353 2 -388 0 -546 -1
-352 -2z"/>
<path d="M5550 2630 l0 -80 125 0 125 0 0 80 0 80 -125 0 -125 0 0 -80z m240
-5 l0 -65 -115 0 -115 0 0 65 0 65 115 0 115 0 0 -65z"/>
<path d="M5840 2630 l0 -80 125 0 125 0 0 80 0 80 -125 0 -125 0 0 -80z m240
-5 l0 -65 -115 0 -115 0 0 65 0 65 115 0 115 0 0 -65z"/>
<path d="M4716 2369 c-33 -26 -56 -69 -56 -106 0 -31 52 -126 100 -183 l30
-35 21 25 c46 56 99 144 105 176 8 43 -10 87 -48 119 -39 33 -113 35 -152 4z
m104 -79 c28 -28 13 -64 -28 -68 -42 -4 -61 28 -37 64 19 29 38 31 65 4z"/>
<path d="M5423 2348 l-42 -42 -90 29 c-75 24 -92 26 -105 15 -9 -7 -16 -16
-16 -20 0 -4 31 -27 70 -50 l70 -42 -31 -39 c-24 -31 -37 -39 -64 -39 -18 0
-38 -7 -45 -15 -10 -12 -6 -17 23 -28 23 -10 38 -25 46 -47 9 -28 13 -31 26
-20 8 7 15 27 16 44 0 23 10 39 39 64 l39 33 41 -71 c23 -38 46 -70 50 -70 4
0 13 7 20 16 11 13 9 30 -15 105 l-29 89 43 44 c45 46 52 79 16 84 -13 2 -36
-13 -62 -40z"/>
<path d="M5747 2343 c-3 -10 -8 -30 -11 -45 -4 -19 -13 -28 -26 -28 -18 0 -20
-7 -20 -64 0 -36 5 -68 10 -71 6 -3 10 -19 10 -36 0 -26 3 -29 30 -29 27 0 30
3 30 30 l0 30 84 0 85 0 3 -27 c2 -22 9 -29 31 -31 23 -3 27 0 27 23 0 15 7
33 15 41 16 16 21 100 7 120 -4 7 -16 13 -27 15 -13 3 -23 17 -31 44 l-11 40
-101 3 c-89 2 -101 1 -105 -15z m78 -3 c3 -5 17 -10 30 -10 13 0 27 5 30 10
10 16 43 11 49 -7 2 -10 7 -28 11 -40 6 -23 5 -23 -89 -23 -103 0 -106 2 -86
54 10 26 43 36 55 16z m-40 -106 c19 -20 16 -43 -7 -58 -35 -22 -74 27 -48 59
16 19 35 19 55 -1z m199 0 c19 -18 19 -20 6 -45 -18 -33 -70 -18 -70 21 0 19
19 40 36 40 7 0 20 -7 28 -16z m-101 -11 c-13 -2 -35 -2 -50 0 -16 2 -5 4 22
4 28 0 40 -2 28 -4z m17 -23 c0 -5 -21 -10 -46 -10 -27 0 -43 4 -39 10 3 6 24
10 46 10 21 0 39 -4 39 -10z"/>
<path d="M3010 1810 l0 -510 745 0 745 0 0 510 0 510 -745 0 -745 0 0 -510z
m1480 65 c0 -380 -2 -435 -15 -435 -13 0 -15 24 -15 160 l0 160 -90 0 -90 0 0
165 0 165 -525 0 -525 0 0 -165 0 -164 -87 -3 -88 -3 4 -158 c3 -151 2 -159
-15 -155 -18 3 -19 23 -22 423 -1 231 0 426 3 432 3 10 160 13 735 13 l730 0
0 -435z m-985 105 l59 -60 -59 -60 -59 -60 -63 62 -63 62 57 58 c32 32 60 58
63 58 3 0 32 -27 65 -60z m310 0 l59 -60 -59 -60 -59 -60 -63 62 -63 62 57 58
c32 32 60 58 63 58 3 0 32 -27 65 -60z m312 8 c29 -29 53 -57 53 -62 0 -6 -26
-36 -57 -68 l-57 -58 -58 57 c-32 32 -58 62 -58 67 0 13 101 116 114 116 6 0
34 -23 63 -52z m115 -245 c16 -14 18 -33 18 -160 l0 -143 -505 0 -505 0 0 142
c0 118 3 145 17 160 15 17 43 18 486 18 424 0 472 -2 489 -17z m-1022 -173 l0
-130 -75 0 -75 0 0 130 0 130 75 0 75 0 0 -130z m1228 -3 l3 -128 -78 3 -78 3
-3 114 c-1 63 0 121 3 128 3 10 23 13 77 11 l73 -3 3 -128z m40 -194 l-3 -58
-730 0 -730 0 -3 44 c-2 24 -1 50 2 57 5 12 123 14 736 14 l731 0 -3 -57z"/>
<path d="M3260 2225 l0 -65 498 2 497 3 3 63 3 62 -501 0 -500 0 0 -65z m980
5 l0 -50 -45 0 c-25 0 -45 5 -45 10 0 6 -138 10 -395 10 -257 0 -395 -4 -395
-10 0 -5 -20 -10 -45 -10 l-45 0 0 50 0 50 485 0 485 0 0 -50z m-293 -47
c-109 -2 -285 -2 -390 0 -106 1 -16 2 198 2 215 0 301 -1 192 -2z"/>
<path d="M3080 1635 l0 -45 65 0 65 0 0 45 0 45 -65 0 -65 0 0 -45z m110 5 c0
-29 -1 -30 -50 -30 -46 0 -50 2 -50 23 0 33 7 37 57 37 41 0 43 -1 43 -30z"/>
<path d="M3080 1530 l0 -40 65 0 65 0 0 40 0 40 -65 0 -65 0 0 -40z m110 0 c0
-29 -1 -30 -50 -30 -49 0 -50 1 -50 30 0 29 1 30 50 30 49 0 50 -1 50 -30z"/>
<path d="M4300 1635 l0 -45 65 0 65 0 0 45 0 45 -65 0 -65 0 0 -45z m118 3 c3
-27 2 -28 -47 -28 -50 0 -51 1 -51 31 0 30 1 30 48 27 43 -3 47 -5 50 -30z"/>
<path d="M4300 1530 l0 -40 65 0 65 0 0 40 0 40 -65 0 -65 0 0 -40z m120 0 c0
-29 -1 -30 -50 -30 -49 0 -50 1 -50 30 0 29 1 30 50 30 49 0 50 -1 50 -30z"/>
<path d="M4720 1820 c0 -7 237 -10 690 -10 453 0 690 3 690 10 0 7 -237 10
-690 10 -453 0 -690 -3 -690 -10z"/>
<path d="M5058 1713 c193 -2 511 -2 705 0 193 1 35 2 -353 2 -388 0 -546 -1
-352 -2z"/>
<path d="M5058 1603 c193 -2 511 -2 705 0 193 1 35 2 -353 2 -388 0 -546 -1
-352 -2z"/>
<path d="M4720 1500 c0 -7 237 -10 690 -10 453 0 690 3 690 10 0 7 -237 10
-690 10 -453 0 -690 -3 -690 -10z"/>
<path d="M5550 1340 l0 -80 125 0 125 0 0 80 0 80 -125 0 -125 0 0 -80z m238
-2 l3 -68 -116 0 -115 0 0 70 0 71 113 -3 112 -3 3 -67z"/>
<path d="M5840 1340 l0 -80 125 0 125 0 0 80 0 80 -125 0 -125 0 0 -80z m240
0 l0 -70 -115 0 -115 0 0 63 c0 35 3 67 7 70 3 4 55 7 115 7 l108 0 0 -70z"/>
<path d="M4790 5434 c0 -31 -3 -35 -20 -29 -18 6 -20 2 -20 -54 l0 -60 38 -10
c83 -22 281 -71 286 -71 3 0 6 24 6 54 0 45 -3 56 -19 61 -14 4 -21 17 -23 43
l-3 37 -110 32 c-60 18 -116 33 -122 33 -8 0 -13 -14 -13 -36z m118 -80 c70
-19 135 -37 145 -40 12 -4 17 -16 17 -45 0 -47 1 -47 -133 -13 -197 49 -177
39 -177 89 0 25 5 45 10 45 6 0 67 -16 138 -36z"/>
<path d="M5170 5330 c0 -23 -4 -30 -20 -30 -18 0 -20 -7 -20 -54 l0 -54 128
-31 c70 -18 135 -34 145 -37 15 -5 17 2 17 49 0 46 -3 55 -20 60 -15 4 -20 14
-20 39 l0 33 -99 28 c-54 15 -101 27 -105 27 -3 0 -6 -13 -6 -30z m232 -116
c4 -3 8 -21 8 -40 0 -42 -1 -42 -150 -1 -110 31 -115 33 -118 60 -7 57 -3 58
129 20 68 -19 126 -36 131 -39z"/>
<path d="M5500 5239 c0 -22 -5 -29 -20 -29 -17 0 -20 -7 -20 -50 l0 -49 43
-11 c23 -6 74 -20 113 -31 38 -10 76 -19 82 -19 19 0 16 96 -3 104 -9 3 -15
18 -15 35 0 22 -6 30 -22 35 -13 3 -53 14 -90 25 l-68 20 0 -30z m101 -76 l99
-28 0 -38 c0 -31 -3 -38 -15 -33 -9 3 -44 13 -78 21 -149 38 -137 32 -137 70
0 43 3 43 131 8z"/>
<path d="M5780 5159 c0 -19 -5 -29 -15 -29 -11 0 -15 -12 -15 -48 l0 -48 98
-23 c53 -13 103 -26 110 -28 15 -6 17 83 2 92 -5 3 -10 19 -10 35 0 25 -5 31
-37 39 -21 6 -59 17 -85 25 l-48 14 0 -29z m100 -73 c72 -21 75 -23 78 -54 4
-39 -1 -39 -113 -9 -78 21 -80 23 -83 55 -3 28 0 32 20 31 13 0 57 -10 98 -23z"/>
<path d="M4790 5131 c0 -34 -3 -38 -20 -34 -18 5 -20 0 -20 -54 l0 -60 158
-32 c86 -17 160 -31 165 -31 4 0 7 24 7 54 0 45 -3 56 -19 61 -14 4 -21 17
-23 43 l-3 36 -95 22 c-165 39 -150 39 -150 -5z m121 -76 c63 -14 124 -27 137
-30 18 -4 22 -12 22 -45 0 -49 8 -48 -172 -13 l-138 27 0 43 c0 52 -3 52 151
18z"/>
<path d="M6030 5085 c0 -16 -6 -25 -15 -25 -11 0 -15 -12 -15 -45 0 -49 -11
-42 123 -76 23 -5 50 -12 60 -15 14 -5 17 2 17 40 0 25 -4 46 -9 46 -6 0 -11
14 -13 32 -3 29 -7 32 -68 50 -82 23 -80 23 -80 -7z m103 -70 c54 -15 57 -17
57 -46 0 -30 -1 -31 -34 -25 -19 4 -57 13 -85 22 -48 14 -51 17 -51 49 0 33 1
34 28 25 15 -5 53 -16 85 -25z"/>
<path d="M5170 5044 c0 -31 -3 -35 -20 -29 -18 6 -20 2 -20 -49 0 -63 -13 -55
145 -86 61 -12 118 -24 128 -26 15 -5 17 2 17 49 0 46 -3 56 -19 60 -14 3 -21
15 -23 38 l-3 34 -95 22 c-52 12 -98 22 -102 23 -5 0 -8 -16 -8 -36z m111 -70
c62 -14 116 -27 121 -30 10 -6 11 -74 1 -74 -9 0 -205 37 -240 45 -19 5 -23
12 -23 45 0 27 4 40 14 40 7 0 64 -11 127 -26z"/>
<path d="M5498 4973 c-2 -20 -8 -27 -20 -25 -15 2 -18 -5 -18 -51 l0 -54 108
-22 c148 -29 142 -31 142 29 0 38 -4 50 -15 50 -10 0 -15 10 -15 33 0 32 0 32
-77 50 -100 22 -101 22 -105 -10z m97 -66 l100 -22 3 -38 3 -38 -33 6 c-18 3
-69 14 -113 23 l-80 17 -3 38 c-4 44 -10 43 123 14z"/>
<path d="M5780 4910 c0 -20 -5 -30 -16 -30 -12 0 -14 -10 -12 -47 l3 -47 108
-22 107 -21 0 48 c0 27 -4 49 -10 49 -5 0 -10 13 -10 29 0 31 -1 32 -75 49
-102 25 -95 25 -95 -8z m98 -66 l82 -17 0 -33 c0 -19 -3 -34 -7 -33 -5 0 -48
8 -98 17 l-90 17 -3 39 c-3 32 -1 37 15 33 10 -3 55 -13 101 -23z"/>
<path d="M6030 4855 c0 -16 -6 -25 -16 -25 -12 0 -14 -10 -12 -47 l3 -47 85
-18 c116 -23 110 -25 110 27 0 25 -4 45 -10 45 -5 0 -10 13 -10 29 0 28 -3 30
-69 45 -87 20 -81 21 -81 -9z m85 -62 c74 -16 75 -16 75 -48 l0 -32 -82 16
c-82 17 -83 17 -86 49 -4 37 -5 37 93 15z"/>
<path d="M4790 4825 c0 -28 -4 -35 -20 -35 -18 0 -20 -7 -20 -58 l0 -57 138
-19 c75 -10 149 -20 165 -23 27 -5 27 -5 27 50 0 47 -3 57 -20 62 -15 5 -20
15 -20 40 0 39 9 35 -131 60 -120 21 -119 21 -119 -20z m130 -70 c161 -24 150
-20 150 -65 0 -48 4 -47 -180 -22 l-125 18 -3 48 c-3 48 -3 48 25 42 15 -2 75
-12 133 -21z"/>
<path d="M5170 4765 c0 -28 -4 -35 -20 -35 -18 0 -20 -7 -20 -54 l0 -53 133
-17 c72 -10 138 -19 145 -22 8 -2 12 12 12 50 0 45 -3 55 -19 59 -14 3 -21 15
-23 38 -3 33 -3 34 -78 46 -41 6 -87 14 -102 17 -26 5 -28 3 -28 -29z m133
-71 l107 -17 0 -39 0 -39 -57 7 c-32 3 -92 12 -133 18 -72 11 -75 12 -78 39
-5 43 4 58 30 53 13 -3 71 -13 131 -22z"/>
<path d="M5500 4710 c0 -23 -4 -30 -20 -30 -17 0 -20 -7 -20 -50 0 -57 -10
-53 148 -73 l102 -14 0 49 c0 34 -5 50 -15 54 -9 4 -15 19 -15 35 0 31 2 30
-104 49 -79 13 -76 14 -76 -20z m178 -75 c18 -4 22 -12 22 -40 0 -40 -1 -40
-100 -25 -139 21 -130 17 -130 54 0 18 2 35 5 38 4 4 149 -15 203 -27z"/>
<path d="M5780 4659 c0 -24 -4 -30 -15 -25 -12 4 -15 -4 -15 -44 0 -56 -7 -52
117 -70 107 -15 103 -16 103 35 0 25 -4 45 -9 45 -6 0 -11 15 -13 32 -3 32 -5
33 -68 45 -98 18 -100 18 -100 -18z m90 -54 c47 -8 86 -15 88 -15 1 0 2 -16 2
-36 0 -33 -2 -35 -27 -30 -16 3 -48 8 -73 11 -100 13 -100 14 -100 51 0 39 -3
39 110 19z"/>
<path d="M6030 4621 c0 -21 -5 -31 -15 -31 -11 0 -15 -11 -15 -43 l0 -44 83
-11 c122 -18 117 -19 117 33 0 25 -4 45 -10 45 -5 0 -10 13 -10 29 0 27 -3 29
-52 35 -29 4 -63 10 -75 13 -20 4 -23 1 -23 -26z m85 -54 c69 -12 70 -13 73
-46 3 -33 3 -33 -30 -28 -18 4 -57 9 -85 13 -52 6 -53 7 -53 40 0 38 -3 38 95
21z"/>
<path d="M4790 4520 c0 -37 -2 -41 -20 -35 -18 6 -20 2 -20 -53 l0 -60 38 -6
c20 -3 78 -8 127 -11 50 -3 107 -8 128 -11 l37 -6 0 57 c0 48 -3 58 -20 62
-15 4 -20 14 -20 38 0 37 -3 39 -115 50 -33 3 -77 8 -97 11 l-38 6 0 -42z
m125 -60 c162 -16 155 -13 155 -62 l0 -41 -107 7 c-60 4 -129 9 -155 13 l-48
6 0 43 c0 51 -10 49 155 34z"/>
<path d="M5170 4483 c0 -26 -4 -33 -20 -33 -18 0 -20 -7 -20 -54 0 -53 1 -54
33 -60 17 -3 83 -8 145 -12 l112 -7 0 50 c0 42 -3 52 -20 56 -14 4 -20 14 -20
36 0 34 -1 34 -137 49 l-73 8 0 -33z m198 -70 c41 -6 42 -6 42 -46 l0 -39 -77
6 c-43 4 -104 9 -135 12 l-58 6 0 40 0 41 93 -7 c50 -4 111 -10 135 -13z"/>
<path d="M5498 4448 c-2 -25 -7 -32 -20 -30 -15 2 -18 -5 -18 -51 l0 -55 88
-6 c48 -4 104 -9 125 -12 l37 -6 0 50 c0 35 -4 52 -15 56 -9 3 -15 18 -15 35
0 28 -2 29 -62 36 -35 3 -75 8 -90 11 -24 5 -27 2 -30 -28z m160 -64 c40 -6
42 -8 42 -42 l0 -35 -107 7 c-59 4 -111 10 -115 12 -5 3 -8 21 -8 41 l0 36 73
-7 c39 -4 91 -9 115 -12z"/>
<path d="M5780 4418 c0 -18 -5 -28 -15 -28 -11 0 -15 -12 -15 -49 l0 -50 53
-5 c28 -3 78 -8 110 -11 l57 -5 0 50 c0 27 -4 50 -10 50 -5 0 -10 14 -10 30 0
26 -4 30 -27 31 -16 0 -54 4 -85 8 l-58 7 0 -28z m173 -65 c4 -2 7 -17 7 -34
0 -28 -2 -29 -47 -29 -27 0 -72 3 -100 6 -53 7 -53 7 -53 41 l0 35 93 -7 c50
-4 95 -9 100 -12z"/>
<path d="M6030 4391 c0 -21 -5 -31 -15 -31 -11 0 -15 -12 -15 -44 l0 -45 53
-5 c28 -3 73 -7 100 -9 l47 -5 0 44 c0 24 -4 44 -10 44 -5 0 -10 13 -10 29 0
28 -3 30 -47 36 -27 3 -60 9 -75 11 -26 5 -28 3 -28 -25z m113 -56 c44 -6 47
-8 47 -36 0 -27 -3 -29 -39 -29 -21 0 -59 3 -85 6 -44 6 -46 8 -46 40 0 34 1
34 38 29 20 -2 58 -7 85 -10z"/>
<path d="M3778 5367 l-108 -20 0 -35 c0 -25 -5 -35 -20 -39 -17 -5 -20 -14
-20 -59 0 -53 0 -53 28 -49 74 13 270 45 276 45 3 0 6 25 6 55 0 48 -2 55 -20
55 -16 0 -20 7 -20 35 0 19 -3 35 -7 34 -5 -1 -56 -10 -115 -22z m152 -100 l0
-44 -132 -22 c-73 -12 -139 -21 -145 -21 -8 0 -13 15 -13 40 0 36 2 40 33 45
17 3 77 14 132 24 55 10 106 19 113 20 8 1 12 -14 12 -42z"/>
<path d="M3418 5302 l-88 -16 0 -32 c0 -24 -5 -34 -20 -39 -16 -5 -20 -15 -20
-56 0 -27 3 -49 8 -49 4 0 69 9 145 21 l137 22 0 53 c0 47 -2 54 -20 54 -16 0
-20 7 -20 30 0 35 3 34 -122 12z m150 -99 l-3 -38 -95 -17 c-180 -31 -160 -32
-160 13 0 21 1 39 3 40 98 19 200 37 225 38 32 1 33 0 30 -36z"/>
<path d="M3098 5243 l-78 -15 0 -34 c0 -24 -5 -34 -15 -34 -11 0 -15 -12 -15
-50 0 -27 2 -50 5 -50 8 0 198 30 228 36 25 5 27 9 27 55 0 37 -4 49 -15 49
-10 0 -15 10 -15 30 0 35 -5 36 -122 13z m142 -92 l0 -39 -67 -11 c-38 -7 -92
-15 -120 -20 l-53 -8 0 38 0 37 73 12 c39 7 88 16 107 20 59 13 60 13 60 -29z"/>
<path d="M2815 5191 c-79 -16 -80 -17 -83 -49 -2 -20 -9 -32 -18 -32 -10 0
-14 -13 -14 -50 0 -47 1 -50 23 -45 22 5 212 35 222 35 3 0 5 23 5 50 0 37 -4
50 -14 50 -8 0 -16 12 -18 27 -2 14 -7 27 -13 29 -5 1 -46 -6 -90 -15z m115
-95 c0 -37 6 -35 -167 -62 l-43 -7 0 36 c0 33 3 37 33 42 17 3 52 10 77 14 25
5 57 9 73 10 24 1 27 -2 27 -33z"/>
<path d="M2548 5143 c-75 -15 -78 -16 -78 -43 0 -16 -7 -30 -15 -34 -10 -4
-15 -20 -15 -51 l0 -45 43 6 c23 4 74 12 112 18 l70 12 3 47 c2 37 0 47 -12
47 -11 0 -16 10 -16 30 0 17 -3 29 -7 29 -5 -1 -43 -8 -85 -16z m112 -93 c0
-32 2 -31 -104 -50 -94 -16 -98 -15 -94 23 l3 32 90 16 c50 9 93 14 98 12 4
-2 7 -17 7 -33z"/>
<path d="M3855 5095 c-5 -2 -49 -9 -97 -15 l-88 -12 0 -33 c0 -25 -5 -35 -20
-40 -17 -5 -20 -15 -20 -59 l0 -52 138 17 c75 10 145 18 155 19 14 0 17 8 15
48 l-1 47 -4 -41 -4 -41 -137 -17 c-75 -9 -140 -16 -144 -16 -5 0 -8 18 -8 39
0 46 -11 42 175 67 114 15 154 24 107 24 -18 0 -22 6 -22 35 0 34 -11 42 -45
30z"/>
<path d="M3423 5033 l-93 -15 0 -33 c0 -24 -5 -34 -20 -38 -17 -4 -20 -14 -20
-57 0 -51 0 -52 28 -46 15 3 70 10 122 16 149 17 140 12 140 74 0 49 -2 54
-20 49 -17 -5 -20 0 -20 31 0 23 -5 36 -12 35 -7 -1 -55 -8 -105 -16z m147
-103 c0 -44 10 -40 -143 -60 -120 -15 -117 -16 -117 29 l0 39 108 14 c162 23
152 24 152 -22z"/>
<path d="M3100 4986 c-75 -11 -75 -11 -78 -43 -2 -21 -9 -33 -18 -33 -10 0
-14 -14 -14 -53 l0 -53 128 16 127 15 3 53 c2 42 0 52 -12 52 -11 0 -16 10
-16 30 0 34 1 34 -120 16z m140 -101 c0 -38 11 -34 -137 -55 -107 -15 -105
-16 -101 28 l3 37 80 11 c44 6 97 12 118 13 36 1 37 0 37 -34z"/>
<path d="M2850 4948 c-123 -18 -120 -16 -120 -47 0 -16 -7 -31 -15 -35 -10 -4
-15 -20 -15 -51 0 -25 3 -45 8 -45 13 0 175 20 210 25 31 6 32 7 32 55 0 38
-4 50 -15 50 -9 0 -15 9 -15 24 0 32 -5 34 -70 24z m80 -103 c0 -19 -3 -35 -7
-35 -5 -1 -52 -7 -105 -14 l-98 -12 0 37 0 37 78 9 c135 18 132 18 132 -22z"/>
<path d="M2550 4904 c-41 -7 -76 -13 -77 -13 -2 -1 -3 -14 -3 -31 0 -20 -5
-30 -15 -30 -11 0 -15 -12 -15 -45 0 -29 4 -45 13 -45 6 0 58 5 115 12 l102
12 0 48 c0 36 -4 48 -15 48 -10 0 -15 10 -15 30 0 17 -3 29 -7 29 -5 -1 -42
-7 -83 -15z m108 -96 c-3 -32 -4 -33 -63 -40 -33 -4 -77 -10 -97 -13 -38 -5
-38 -5 -38 29 0 34 1 35 48 41 26 4 52 8 57 10 6 2 29 4 53 4 43 1 43 1 40
-31z"/>
<path d="M3805 4804 c-11 -2 -46 -6 -77 -9 l-58 -6 0 -35 c0 -27 -4 -34 -20
-34 -18 0 -20 -7 -20 -55 0 -65 -17 -60 178 -43 l132 11 0 58 c0 52 -2 57 -20
52 -17 -5 -20 0 -20 31 0 35 -1 36 -37 35 -21 -1 -47 -3 -58 -5z m123 -116
l-3 -43 -75 -7 c-41 -3 -106 -9 -143 -13 l-68 -6 3 43 3 43 110 11 c188 19
177 21 173 -28z"/>
<path d="M3425 4763 c-92 -11 -95 -12 -95 -44 0 -22 -6 -32 -20 -36 -17 -4
-20 -14 -20 -56 l0 -50 78 7 c42 3 107 9 145 12 l67 7 0 53 c0 47 -2 54 -20
54 -16 0 -20 7 -20 30 0 29 -2 30 -42 29 -24 -1 -56 -4 -73 -6z m143 -110 l-3
-38 -60 -6 c-33 -4 -90 -9 -127 -12 l-68 -6 0 39 0 39 58 6 c31 3 66 7 77 9
11 2 44 4 73 5 l53 1 -3 -37z"/>
<path d="M3103 4728 l-83 -10 0 -34 c0 -24 -5 -34 -15 -34 -11 0 -15 -12 -15
-51 l0 -51 43 5 c23 4 81 9 130 13 l87 6 0 55 c0 45 -3 54 -15 49 -12 -4 -15
3 -15 29 0 27 -4 35 -17 34 -10 -1 -55 -6 -100 -11z m135 -105 l-3 -38 -117
-10 -118 -10 0 37 0 36 68 7 c37 3 74 8 82 9 8 2 32 4 53 5 38 1 38 1 35 -36z"/>
<path d="M2820 4696 l-85 -11 -3 -32 c-2 -21 -9 -33 -18 -33 -10 0 -14 -13
-14 -46 l0 -46 108 6 c147 10 144 8 140 64 -2 31 -7 46 -15 45 -8 -2 -13 8
-13 26 0 17 -3 32 -7 34 -5 2 -46 -1 -93 -7z m110 -101 c0 -39 0 -39 -137 -50
l-73 -6 0 35 c0 33 2 35 43 40 168 22 167 22 167 -19z"/>
<path d="M2553 4666 c-82 -8 -83 -8 -83 -36 0 -16 -7 -30 -15 -34 -10 -4 -15
-20 -15 -51 0 -45 1 -46 28 -41 15 2 66 8 115 11 l87 7 0 49 c0 36 -4 49 -14
49 -9 0 -16 12 -18 28 l-3 27 -82 -9z m107 -95 c0 -17 -3 -32 -7 -34 -5 -3
-50 -8 -100 -12 l-93 -7 0 35 0 36 53 4 c147 10 147 10 147 -22z"/>
<path d="M3850 4523 c-19 -1 -68 -6 -107 -9 l-73 -6 0 -34 c0 -27 -4 -34 -20
-34 -18 0 -20 -7 -20 -56 l0 -57 92 7 c50 3 120 6 155 6 l63 0 0 60 c0 53 -2
60 -20 60 -16 0 -20 7 -20 35 0 19 -3 34 -7 33 -5 0 -24 -3 -43 -5z m80 -122
c0 -38 -1 -39 -37 -45 -21 -3 -85 -7 -143 -8 l-105 -3 0 40 0 40 75 6 c41 3
105 6 143 7 l67 2 0 -39z"/>
<path d="M3398 4493 l-68 -4 0 -33 c0 -25 -5 -35 -20 -39 -17 -4 -20 -14 -20
-55 l0 -51 113 5 c61 3 127 7 145 10 31 5 32 6 32 54 0 43 -3 50 -20 50 -16 0
-20 7 -20 35 0 34 -1 35 -37 33 -21 -1 -68 -3 -105 -5z m172 -112 l0 -38 -52
-7 c-29 -3 -88 -6 -130 -6 l-78 0 0 40 0 39 83 4 c45 1 103 4 130 5 l47 2 0
-39z"/>
<path d="M3140 4473 c-107 -6 -120 -11 -120 -43 0 -20 -5 -30 -15 -30 -11 0
-15 -12 -15 -50 l0 -50 63 0 c34 0 92 3 130 7 l67 6 0 48 c0 36 -4 49 -14 49
-9 0 -16 12 -18 32 -3 35 -3 35 -78 31z m100 -113 l0 -40 -43 0 c-24 0 -78 -3
-120 -6 l-77 -7 0 41 0 41 83 4 c45 1 99 4 120 5 37 2 37 2 37 -38z"/>
<path d="M2758 4443 c-23 -4 -28 -9 -28 -34 0 -19 -5 -29 -15 -29 -11 0 -15
-12 -15 -49 l0 -50 113 6 c61 2 118 6 125 9 19 5 16 94 -3 94 -10 0 -15 10
-15 30 l0 30 -67 -1 c-38 -1 -80 -4 -95 -6z m172 -97 c0 -43 -9 -46 -121 -46
l-89 0 0 35 0 34 63 4 c160 9 147 11 147 -27z"/>
<path d="M2205 4803 c11 -3 26 -10 34 -17 11 -9 13 -8 9 4 -2 8 -18 16 -34 17
-18 1 -22 0 -9 -4z"/>
<path d="M2183 4740 c-12 -28 -6 -47 9 -32 5 5 8 20 6 33 l-5 24 -10 -25z"/>
<path d="M954 3713 l7 -80 -56 10 c-31 5 -58 7 -61 4 -3 -2 -7 -50 -11 -105
l-6 -100 -23 11 c-13 5 -27 8 -30 4 -11 -11 -134 -382 -134 -405 0 -34 47 -76
115 -101 103 -39 244 -71 315 -71 119 0 129 21 169 335 28 212 30 195 -25 195
l-46 0 6 63 c3 34 9 114 12 178 l7 116 -44 6 c-24 3 -80 9 -123 13 l-79 7 7
-80z m223 43 c3 -3 -18 -330 -23 -344 -2 -9 -19 -12 -51 -10 -54 3 -51 -8 -42
138 l4 75 -47 8 -46 9 -4 70 c-2 38 -2 71 -1 72 2 2 207 -15 210 -18z m-199
-139 c40 -7 74 -15 74 -20 0 -4 -3 -48 -6 -97 l-8 -90 -30 0 c-17 0 -59 5 -94
12 l-64 11 0 103 0 104 28 -6 c15 -3 60 -10 100 -17z"/>
<path d="M6943 443 c15 -2 39 -2 55 0 15 2 2 4 -28 4 -30 0 -43 -2 -27 -4z"/>
</g>
</svg>
