<?xml version="1.0" standalone="no"?>
<!DOCTYPE svg PUBLIC "-//W3C//DTD SVG 20010904//EN"
 "http://www.w3.org/TR/2001/REC-SVG-20010904/DTD/svg10.dtd">
<svg version="1.0" xmlns="http://www.w3.org/2000/svg"
 width="640.000000pt" height="640.000000pt" viewBox="0 0 640.000000 640.000000"
 preserveAspectRatio="xMidYMid meet">

<g transform="translate(0.000000,640.000000) scale(0.100000,-0.100000)"
fill="#000000" stroke="none">
<path d="M1720 6058 c0 -3 9 -27 20 -53 11 -26 18 -51 14 -56 -3 -5 -1 -9 5
-9 16 0 25 -42 10 -51 -11 -7 -11 -11 3 -21 53 -40 283 -625 250 -636 -6 -2
-5 -12 3 -30 7 -15 16 -62 19 -105 l7 -77 -38 -22 c-21 -13 -66 -42 -100 -65
l-61 -42 -38 61 c-33 54 -36 63 -24 82 46 72 47 102 9 177 -37 73 -106 109
-186 96 -72 -12 -103 -74 -84 -168 22 -107 70 -153 159 -155 l54 -1 35 -62 35
-63 -21 -15 c-45 -31 -271 -237 -271 -246 0 -1 22 0 50 1 45 4 50 6 50 27 0
26 33 55 63 55 11 0 22 -11 28 -30 15 -42 47 -41 51 2 5 52 37 67 151 70 90 3
100 1 116 -18 9 -12 28 -25 42 -29 32 -10 49 -24 49 -42 0 -8 11 -28 25 -44
27 -33 25 -50 -10 -69 -21 -11 -28 -11 -44 5 -20 17 -20 17 -14 -17 5 -32 2
-37 -30 -57 -29 -18 -40 -20 -63 -11 -16 6 -36 20 -45 32 -10 13 -29 21 -53
23 -20 1 -39 5 -42 8 -13 13 9 27 42 27 19 0 40 5 47 10 7 6 21 17 32 24 19
14 19 15 2 34 -10 11 -34 22 -52 24 -30 3 -40 -2 -75 -39 -22 -24 -49 -43 -60
-43 -21 0 -28 -24 -10 -35 18 -11 10 -26 -12 -24 -13 1 -35 -1 -50 -5 -15 -5
-35 -3 -47 4 -17 9 -30 7 -64 -9 -23 -10 -55 -24 -72 -31 -51 -19 -85 -52 -79
-77 7 -26 93 -83 127 -83 35 0 40 -13 20 -49 -13 -21 -15 -33 -7 -41 18 -18
43 0 50 35 5 28 15 38 53 57 40 20 46 27 45 53 0 17 5 34 13 38 7 4 22 26 33
48 19 37 23 39 68 39 58 0 99 -33 87 -69 -9 -31 18 -37 54 -12 16 12 34 21 40
21 16 0 31 -35 31 -75 0 -27 8 -44 30 -67 33 -32 35 -43 19 -85 -8 -22 -7 -30
6 -39 11 -9 15 -24 13 -51 -3 -42 1 -40 -91 -27 -26 4 -50 10 -52 14 -3 4 5
19 16 34 l20 26 -60 0 c-54 0 -61 -2 -61 -19 0 -11 -4 -23 -10 -26 -5 -3 -10
-17 -10 -30 0 -16 7 -25 25 -29 40 -10 30 -33 -17 -40 -23 -4 -47 -14 -54 -24
-10 -14 -15 -15 -25 -4 -28 27 -97 3 -112 -39 -2 -8 -23 -21 -45 -27 -46 -14
-102 -71 -132 -136 -15 -32 -31 -48 -60 -61 -21 -10 -55 -33 -75 -51 l-37 -33
7 -66 c7 -63 -2 -95 -26 -95 -12 0 -32 40 -38 80 -5 26 -12 36 -29 38 -12 2
-22 8 -22 13 0 15 -57 10 -71 -7 -10 -13 -24 -14 -66 -9 -44 5 -60 3 -89 -14
-44 -26 -48 -26 -41 -1 5 20 2 20 -69 15 -215 -15 -219 -15 -247 -1 -25 14
-27 14 -29 -7 0 -12 -1 -29 0 -39 1 -12 -10 -18 -39 -23 -22 -4 -43 -4 -47 -1
-3 4 -8 47 -10 96 l-4 90 -29 0 c-16 0 -29 5 -29 10 0 6 -3 10 -8 10 -4 0 -4
-35 0 -77 11 -127 11 -133 -12 -133 -11 0 -20 5 -20 11 0 6 -6 9 -14 6 -11 -4
-17 13 -26 78 l-12 83 -40 6 c-27 5 -51 17 -71 39 -20 21 -28 25 -22 12 69
-165 93 -805 39 -1021 -9 -35 15 -30 28 6 5 17 19 35 29 41 10 5 19 16 19 24
0 8 9 15 20 15 27 0 40 36 40 108 0 45 4 61 20 75 44 37 50 26 50 -95 1 -96 3
-110 14 -95 7 9 23 17 35 17 20 0 21 5 21 94 0 89 1 94 22 100 53 14 65 8 72
-34 6 -39 7 -40 29 -26 13 8 66 17 132 21 97 6 112 9 134 31 27 27 92 48 121
39 17 -5 80 18 80 30 0 2 -5 15 -12 29 -11 25 -16 28 -71 40 -15 4 -45 22 -66
41 -39 36 -71 39 -71 8 0 -9 6 -13 15 -9 8 3 15 1 15 -5 0 -5 -7 -12 -15 -15
-10 -4 -15 -20 -15 -49 l0 -43 -67 -6 c-38 -3 -121 -8 -185 -12 -117 -6 -117
-6 -122 18 -3 12 -8 109 -11 214 l-6 190 207 12 c115 6 210 9 212 7 2 -2 -2
-43 -9 -90 -15 -101 -12 -105 63 -105 44 0 47 2 53 30 8 35 31 50 74 50 36 0
36 -3 16 -59 -14 -41 -14 -42 5 -36 11 4 20 2 20 -4 0 -11 -6 -13 -40 -15 -14
-1 -16 -7 -11 -36 0 -5 21 -10 45 -10 60 0 70 -14 52 -81 l-13 -54 36 -6 c20
-3 56 -16 80 -28 43 -22 45 -22 58 -5 7 10 13 22 13 26 0 13 87 48 118 48 15
0 43 -10 62 -22 34 -21 71 -24 160 -15 19 1 26 -3 28 -21 6 -41 76 -104 127
-113 62 -12 88 -34 117 -100 25 -55 27 -58 113 -98 48 -23 99 -41 112 -41 28
0 57 -14 84 -41 10 -10 25 -19 33 -19 23 0 38 -28 38 -71 -1 -31 -11 -56 -48
-109 -39 -57 -46 -74 -41 -100 4 -17 2 -54 -4 -83 -20 -100 -46 -147 -81 -147
-22 0 -99 -38 -111 -54 -4 -6 -5 -28 -2 -50 3 -24 1 -44 -7 -53 -17 -20 -32
-48 -61 -108 -13 -27 -34 -59 -46 -69 -11 -11 -21 -25 -21 -33 0 -25 -31 -61
-61 -72 -48 -16 -36 -37 29 -50 32 -6 69 -19 82 -28 16 -11 45 -17 95 -17 60
-1 78 -5 112 -28 23 -15 47 -40 54 -56 12 -27 16 -28 58 -24 37 3 52 -1 74
-18 16 -13 32 -32 37 -44 5 -14 23 -27 47 -34 52 -16 112 -67 134 -116 22 -49
25 -140 5 -187 -18 -42 -81 -104 -121 -120 -36 -14 -41 -11 109 -48 65 -16
120 -32 123 -35 3 -2 -7 -41 -22 -85 l-27 -81 -40 0 c-77 0 -150 -107 -133
-196 9 -52 71 -114 113 -114 39 0 110 53 139 105 36 63 29 118 -19 172 l-20
22 33 86 34 85 60 -6 c33 -3 78 -10 99 -14 47 -10 398 -6 439 5 18 5 27 14 27
27 0 56 91 148 146 148 17 0 19 6 16 64 -8 155 105 268 269 267 54 0 80 -6
119 -25 40 -20 59 -24 97 -20 40 5 58 1 103 -23 34 -18 60 -39 69 -58 14 -29
18 -30 76 -30 51 0 69 5 106 29 24 16 55 36 69 43 22 11 4 13 -130 13 -129 0
-162 4 -196 19 -112 51 -133 187 -43 274 22 20 46 37 53 37 7 0 32 18 55 41
36 36 46 40 74 35 27 -5 34 -2 42 16 18 39 62 63 118 64 29 0 69 8 89 17 45
20 127 22 171 4 48 -21 106 -90 113 -137 4 -22 10 -40 14 -40 10 0 160 203
210 285 65 106 162 305 163 331 0 13 3 22 7 19 8 -5 82 210 104 305 43 185 66
407 60 580 -6 180 -12 220 -34 220 -28 0 -50 -11 -50 -25 0 -7 -16 -25 -35
-40 -25 -18 -34 -32 -30 -44 7 -22 -4 -53 -16 -46 -4 3 -5 13 -2 23 4 11 -4 8
-24 -11 -27 -25 -31 -36 -36 -104 -4 -59 -10 -80 -28 -99 -32 -34 -53 -30 -71
14 -9 20 -34 80 -56 132 -23 52 -44 112 -47 133 -5 32 -10 37 -33 37 -17 1
-34 11 -47 27 -11 14 -36 42 -57 60 -36 34 -38 35 -133 37 -86 1 -99 4 -114
23 -12 15 -25 19 -43 16 -32 -6 -104 30 -113 57 -8 25 -41 44 -51 29 -10 -17
17 -59 48 -75 18 -10 31 -26 35 -44 7 -36 29 -39 68 -8 l28 22 21 -27 c12 -15
28 -27 35 -27 17 0 40 -29 41 -51 0 -37 -51 -108 -98 -135 -26 -15 -56 -35
-67 -44 -11 -10 -58 -33 -103 -51 -78 -31 -85 -33 -97 -16 -6 9 -18 17 -25 17
-9 0 -8 -5 3 -18 10 -10 17 -26 17 -35 0 -26 31 -28 104 -7 38 11 73 17 77 14
13 -7 10 -43 -5 -86 -12 -34 -12 -38 5 -43 11 -4 19 -11 19 -16 0 -11 -7 -11
-29 1 -15 8 -22 1 -42 -41 -20 -44 -68 -98 -96 -110 -14 -7 -99 -113 -117
-146 -18 -37 -13 -128 10 -174 7 -14 10 -35 7 -47 -3 -14 5 -33 25 -59 118
-149 22 -349 -177 -369 -34 -4 -61 -11 -61 -16 0 -11 -27 -48 -78 -108 -36
-42 -59 -52 -164 -70 -87 -16 -98 -9 -115 71 -7 35 -21 75 -31 89 -19 25 -21
25 -203 30 -183 5 -207 9 -249 46 -8 7 -31 14 -50 17 -30 3 -32 5 -13 11 20 7
20 10 7 42 -43 102 19 223 129 249 15 4 27 8 27 9 0 0 -4 16 -9 33 -10 35 4
105 32 159 22 42 87 99 130 113 32 11 36 15 31 39 -3 15 -1 50 5 77 11 61 -4
85 -54 85 -24 0 -37 7 -49 25 -21 31 -56 33 -121 4 -33 -15 -57 -19 -81 -14
-19 3 -52 1 -74 -6 -38 -12 -41 -11 -96 27 -39 27 -63 53 -80 86 -13 26 -35
55 -48 63 -45 30 -59 96 -30 140 13 20 15 39 9 93 -6 65 -5 72 26 131 18 35
53 83 78 107 24 24 42 46 40 48 -2 1 -37 20 -77 41 -151 79 -179 174 -54 190
26 3 61 10 78 15 17 6 49 10 71 10 45 0 53 12 53 81 0 46 13 52 101 43 l66 -6
6 28 c7 35 -14 71 -49 85 -31 11 -27 33 7 37 13 2 28 8 34 13 5 5 20 9 33 9
13 0 34 9 46 19 57 52 93 79 114 85 17 6 22 15 22 40 0 61 47 78 52 19 3 -36
5 -38 35 -36 17 2 34 -1 37 -6 5 -8 68 3 114 20 12 5 22 17 22 29 0 11 11 27
25 36 33 21 32 35 -5 62 -40 30 -40 64 0 92 17 12 30 26 30 31 0 18 -36 -1
-81 -42 -37 -34 -42 -42 -31 -57 24 -34 25 -45 5 -61 -11 -9 -23 -28 -26 -42
-7 -28 -43 -49 -82 -49 -25 0 -33 14 -15 25 14 9 12 20 -8 45 -17 21 -21 22
-55 9 -46 -16 -63 -3 -72 56 -7 40 -7 41 42 64 26 13 82 56 123 95 50 48 89
75 116 84 52 15 168 16 197 0 18 -9 90 -31 185 -55 13 -3 34 0 48 7 19 11 29
11 47 2 17 -9 30 -10 57 -1 31 10 64 16 207 35 35 5 47 12 64 41 20 32 25 34
58 29 59 -10 115 -6 132 10 21 19 29 18 55 -7 l22 -20 21 27 c11 15 21 33 21
41 0 8 16 34 36 58 l35 43 34 -14 c53 -22 59 -17 20 17 -19 17 -35 37 -35 43
0 7 22 37 48 68 46 53 48 54 77 42 58 -25 72 -16 27 16 -52 39 -78 82 -87 143
l-7 47 -57 0 c-59 0 -101 18 -153 68 -33 30 -37 14 -9 -32 l20 -31 -50 -58
c-28 -31 -55 -57 -59 -57 -5 0 -25 14 -45 31 -40 35 -44 29 -15 -19 l21 -34
-36 -44 c-20 -24 -43 -44 -50 -44 -8 0 -26 -15 -41 -34 l-27 -33 -56 37 c-31
20 -77 49 -103 64 l-47 27 -368 2 -368 2 -37 28 c-96 74 -91 214 9 277 26 17
53 30 60 30 7 0 13 6 13 14 0 26 52 58 85 53 26 -4 33 0 47 23 8 15 34 36 57
46 26 11 41 24 41 36 0 10 -4 18 -10 18 -5 0 -7 6 -4 14 3 7 -2 51 -10 96 -9
45 -16 84 -16 86 0 2 -6 1 -13 -2 -8 -3 -18 5 -24 18 l-10 23 -7 -22 c-10 -30
-20 -29 -35 3 -9 21 -14 24 -26 14 -20 -17 -19 -31 3 -23 15 6 16 5 2 -13 -14
-17 -14 -18 1 -6 13 10 19 9 29 -3 11 -14 14 -13 27 2 12 15 14 16 10 2 -4
-12 -1 -15 13 -12 15 4 20 -4 29 -47 6 -28 11 -70 11 -93 0 -24 5 -48 11 -54
8 -8 1 -14 -24 -22 -19 -7 -45 -25 -57 -41 -13 -18 -31 -29 -44 -28 -32 1 -74
-19 -88 -43 -7 -11 -37 -32 -65 -45 -29 -14 -53 -29 -53 -35 0 -6 -4 -8 -9 -5
-4 3 -17 -1 -27 -9 -13 -11 -15 -15 -4 -13 8 2 19 8 23 13 5 6 7 4 4 -5 -2
-10 -17 -15 -48 -15 -37 0 -44 3 -45 20 -1 30 17 50 29 33 6 -9 7 -7 3 6 -8
23 2 58 15 51 5 -3 6 2 2 11 -5 13 -3 15 7 9 7 -5 11 -4 8 1 -7 12 27 75 36
67 4 -4 4 1 0 11 -5 14 -4 17 5 12 6 -4 11 -4 10 1 -5 19 14 62 24 56 5 -3 7
-1 4 4 -4 6 2 22 13 36 11 14 20 28 20 31 0 18 54 115 61 110 5 -3 6 3 2 13
-6 17 -5 17 13 1 18 -16 19 -15 19 18 0 36 -6 42 -23 22 -9 -12 -147 -264
-241 -438 l-40 -75 -65 -3 c-60 -3 -66 -1 -66 17 0 11 -4 23 -10 26 -6 3 -10
-5 -10 -19 0 -23 -4 -25 -67 -30 -38 -4 -82 -8 -100 -11 -18 -2 -34 1 -37 8
-3 9 -7 9 -13 0 -10 -13 -190 -46 -205 -37 -6 4 -13 2 -17 -3 -3 -6 -57 -25
-120 -42 -62 -18 -119 -35 -126 -37 -16 -7 -175 123 -175 142 0 10 -6 14 -15
10 -10 -3 -35 21 -78 77 -140 181 -319 459 -310 483 3 9 -2 14 -14 14 -13 0
-35 24 -66 73 -25 39 -47 69 -47 65z m355 -629 c74 -115 77 -122 60 -136 -11
-7 -24 -12 -29 -10 -8 3 -115 248 -116 265 0 11 18 -14 85 -119z m1201 -137
c-23 -23 -33 -6 -10 19 12 13 20 16 22 9 3 -7 -3 -19 -12 -28z m-46 -31 c0
-13 -29 -35 -37 -28 -7 8 15 37 28 37 5 0 9 -4 9 -9z m-988 -71 c21 -23 38
-44 38 -48 0 -4 -27 -19 -59 -33 l-59 -27 -11 44 c-16 61 -14 67 17 86 15 10
29 18 31 18 2 0 21 -18 43 -40z m918 15 c-7 -8 -19 -15 -27 -15 -13 0 -13 3
-3 15 7 8 19 15 27 15 13 0 13 -3 3 -15z m-80 -52 c-12 -8 -24 -12 -28 -8 -9
9 28 36 40 29 5 -4 0 -13 -12 -21z m-74 -39 c-11 -7 -22 -11 -25 -8 -3 3 3 12
13 20 11 7 22 11 25 8 3 -3 -3 -12 -13 -20z m-56 -23 c0 -10 -24 -21 -43 -21
-7 0 -3 7 7 15 22 17 36 19 36 6z m-84 -46 c-23 -17 -36 -19 -36 -6 0 11 18
19 40 20 11 0 10 -3 -4 -14z m-66 -25 c0 -13 -28 -25 -38 -16 -3 4 0 11 8 16
20 13 30 12 30 0z m-70 -40 c0 -5 -9 -14 -20 -20 -22 -12 -27 -1 -8 18 14 14
28 16 28 2z m1961 -54 c15 -32 6 -63 -28 -109 -26 -33 -53 -48 -53 -29 0 4
-18 20 -40 36 -22 17 -40 33 -40 37 0 5 17 26 38 49 32 33 46 40 76 40 29 0
39 -5 47 -24z m-2036 -6 c-10 -11 -22 -17 -28 -13 -6 4 -3 12 8 20 28 20 41
16 20 -7z m-56 -56 c-6 -8 -18 -14 -27 -14 -13 0 -12 3 3 20 20 22 43 17 24
-6z m-49 -43 c0 -13 -29 -35 -37 -28 -7 8 15 37 28 37 5 0 9 -4 9 -9z m-67
-83 c-10 -11 -19 -15 -21 -8 -5 15 18 41 30 34 5 -3 1 -15 -9 -26z m-33 -47
c0 -13 -29 -35 -37 -28 -7 8 15 37 28 37 5 0 9 -4 9 -9z m-50 -68 c0 -5 -4
-15 -10 -23 -11 -18 -25 -7 -17 15 6 15 27 21 27 8z m-40 -71 c0 -11 -22 -32
-32 -32 -5 0 -4 9 2 20 11 20 30 28 30 12z m-40 -70 c0 -5 -7 -17 -15 -28 -15
-19 -20 -8 -9 20 6 17 24 22 24 8z m-40 -74 c0 -19 -18 -43 -25 -36 -4 3 -2
16 5 27 12 24 20 27 20 9z m951 -87 c4 -18 21 -53 38 -78 17 -24 31 -46 31
-50 0 -18 -37 -43 -62 -43 -16 0 -39 -5 -50 -11 -11 -6 -24 -7 -29 -2 -12 12
11 83 28 83 18 0 17 26 -1 33 -8 3 -22 18 -32 32 -15 22 -15 29 -3 51 10 20
19 24 43 22 26 -3 31 -8 37 -37z m-981 12 c0 -14 -19 -38 -25 -32 -8 8 5 39
16 39 5 0 9 -3 9 -7z m899 -62 c11 -7 11 -15 0 -45 -11 -29 -21 -39 -51 -48
-21 -6 -41 -9 -44 -6 -3 3 -2 22 1 41 5 26 15 39 38 51 37 18 38 18 56 7z
m-929 -13 c0 -19 -18 -43 -25 -36 -4 3 -2 16 5 27 12 24 20 27 20 9z m-27 -98
c-3 -11 -9 -20 -14 -20 -10 0 -12 33 -3 43 12 12 22 -3 17 -23z m-23 -75 c0
-14 -4 -25 -10 -25 -11 0 -14 33 -3 43 11 11 13 8 13 -18z m-16 -77 c-8 -27
-12 -33 -19 -27 -7 8 7 49 17 49 5 0 6 -10 2 -22z m-14 -83 c0 -14 -4 -25 -10
-25 -11 0 -14 33 -3 43 11 11 13 8 13 -18z m-10 -80 c0 -14 -4 -25 -10 -25
-11 0 -14 33 -3 43 11 11 13 8 13 -18z m0 -86 c0 -10 -4 -19 -10 -19 -5 0 -10
12 -10 26 0 14 4 23 10 19 6 -3 10 -15 10 -26z m0 -79 c0 -11 -4 -20 -10 -20
-5 0 -10 9 -10 20 0 11 5 20 10 20 6 0 10 -9 10 -20z m7 -76 c3 -8 1 -20 -4
-25 -7 -7 -12 -2 -15 15 -6 28 9 36 19 10z m13 -95 c0 -10 -4 -19 -10 -19 -5
0 -10 12 -10 26 0 14 4 23 10 19 6 -3 10 -15 10 -26z m236 -22 c4 -4 -7 -7
-25 -7 -18 0 -30 4 -27 8 6 10 42 9 52 -1z m79 3 c4 -6 -7 -10 -25 -10 -18 0
-29 4 -25 10 3 6 15 10 25 10 10 0 22 -4 25 -10z m81 -3 c4 -4 -5 -7 -19 -7
-15 0 -27 4 -27 10 0 11 35 8 46 -3z m-326 -7 c0 -5 -11 -10 -25 -10 -14 0
-25 5 -25 10 0 6 11 10 25 10 14 0 25 -4 25 -10z m80 0 c0 -5 -9 -10 -19 -10
-11 0 -23 5 -26 10 -4 6 5 10 19 10 14 0 26 -4 26 -10z m330 0 c0 -5 -9 -9
-20 -7 -31 5 -36 17 -7 17 15 0 27 -4 27 -10z m80 0 c0 -5 -11 -10 -25 -10
-14 0 -25 5 -25 10 0 6 11 10 25 10 14 0 25 -4 25 -10z m64 4 c25 -10 19 -22
-9 -16 -14 2 -22 8 -19 13 6 11 8 11 28 3z m-730 -25 c-27 -11 -34 -10 -34 0
0 11 31 20 44 13 5 -3 1 -9 -10 -13z m91 11 c-3 -5 -15 -10 -26 -10 -10 0 -19
5 -19 10 0 6 12 10 26 10 14 0 23 -4 19 -10z m735 0 c0 -5 -9 -10 -20 -10 -11
0 -20 5 -20 10 0 6 9 10 20 10 11 0 20 -4 20 -10z m-896 -9 c6 -9 -35 -24 -43
-15 -6 5 18 24 31 24 4 0 9 -4 12 -9z m-90 -22 c-27 -11 -34 -10 -34 0 0 11
31 20 44 13 5 -3 1 -9 -10 -13z m281 0 c6 -19 0 -38 -9 -28 -10 12 -16 49 -7
49 5 0 13 -9 16 -21z m-1682 -131 c11 -234 9 -288 -8 -288 -35 0 -50 32 -50
105 0 65 1 70 23 73 20 3 23 8 20 40 -2 29 -7 37 -23 37 -17 0 -21 9 -28 72
-10 79 -1 102 39 103 20 0 21 -6 27 -142z m1332 122 c-3 -5 -15 -10 -26 -10
-10 0 -19 5 -19 10 0 6 12 10 26 10 14 0 23 -4 19 -10z m-85 -9 c0 -12 -39
-21 -45 -11 -3 5 3 11 12 13 29 8 33 7 33 -2z m-375 -34 c42 -20 115 -71 115
-79 0 -9 -12 -11 -53 -8 -18 1 -39 14 -57 33 -26 29 -33 32 -89 31 -58 -1 -60
0 -45 17 26 29 79 31 129 6z m300 13 c-3 -5 -17 -10 -31 -10 -14 0 -22 4 -19
10 3 6 17 10 31 10 14 0 22 -4 19 -10z m-85 -20 c0 -5 -12 -10 -26 -10 -14 0
-23 4 -19 10 3 6 15 10 26 10 10 0 19 -4 19 -10z m630 -32 c0 -14 -18 -9 -24
8 -11 28 -6 39 9 20 8 -11 15 -23 15 -28z m-705 12 c-3 -5 -15 -10 -26 -10
-11 0 -17 5 -14 10 3 6 15 10 26 10 11 0 17 -4 14 -10z m-166 -51 c-18 -11
-39 -11 -39 0 0 11 31 20 44 13 4 -2 2 -8 -5 -13z m259 -23 c22 -22 12 -27
-61 -33 -44 -4 -67 -2 -72 6 -4 8 1 14 13 18 14 3 19 10 15 20 -5 14 1 15 41
11 27 -3 55 -13 64 -22z m641 5 c14 -25 1 -35 -15 -13 -16 20 -17 32 -4 32 5
0 14 -8 19 -19z m-969 0 c0 -9 -24 -21 -41 -21 -16 0 -10 18 9 23 28 8 32 7
32 -2z m1014 -67 c9 -22 -3 -32 -14 -14 -12 19 -12 30 -1 30 5 0 12 -7 15 -16z
m53 -59 c8 -9 13 -19 9 -22 -7 -7 -36 16 -36 28 0 13 10 11 27 -6z m2913 -2
c0 -14 -19 -38 -25 -32 -8 8 5 39 16 39 5 0 9 -3 9 -7z m-2850 -58 c7 -9 10
-18 7 -22 -8 -7 -37 15 -37 28 0 14 16 11 30 -6z m2811 -48 c-13 -13 -15 1 -4
30 7 17 8 17 11 -1 2 -10 -1 -23 -7 -29z m-2750 2 c11 -5 17 -14 14 -20 -7
-11 -45 7 -45 21 0 13 7 13 31 -1z m75 -54 c10 -8 14 -15 7 -15 -19 0 -43 11
-43 21 0 13 14 11 36 -6z m2657 -5 c-3 -11 -9 -23 -14 -26 -10 -6 -12 29 -2
39 13 13 21 7 16 -13z m-2587 -35 c10 -8 14 -15 7 -15 -19 0 -43 11 -43 21 0
13 14 11 36 -6z m2554 -27 c0 -19 -18 -43 -25 -36 -4 3 -2 16 5 27 12 24 20
27 20 9z m-2480 -13 c8 -9 8 -15 2 -15 -18 0 -42 12 -42 21 0 14 26 10 40 -6z
m1878 -7 c19 -19 14 -30 -8 -18 -11 6 -20 15 -20 20 0 14 14 12 28 -2z m-1814
-24 c17 -6 22 -24 8 -24 -5 0 -17 7 -28 15 -19 15 -8 20 20 9z m1886 -29 c10
-12 10 -15 -3 -15 -8 0 -20 7 -27 15 -10 12 -10 15 3 15 8 0 20 -7 27 -15z
m-1810 -5 c8 -5 11 -12 8 -16 -10 -9 -38 3 -38 16 0 12 10 13 30 0z m2300 -4
c0 -15 -18 -31 -26 -23 -7 7 7 37 17 37 5 0 9 -6 9 -14z m-2211 -42 c2 -2 2
-7 -2 -10 -8 -9 -47 6 -47 17 0 9 37 3 49 -7z m1786 5 c12 -19 -5 -23 -22 -6
-16 16 -16 17 -1 17 9 0 20 -5 23 -11z m385 -28 c0 -5 -7 -14 -15 -21 -16 -14
-18 -10 -9 14 6 17 24 22 24 7z m-2116 -7 c17 -6 22 -24 8 -24 -5 0 -17 7 -28
15 -19 15 -8 20 20 9z m1797 -20 c12 -14 11 -16 -5 -13 -11 2 -21 10 -24 17
-5 17 13 15 29 -4z m-1721 -29 c16 -19 0 -19 -26 0 -16 12 -16 14 -3 15 9 0
22 -7 29 -15z m1976 -33 c-14 -14 -16 -14 -16 -1 0 20 23 44 29 28 2 -6 -4
-18 -13 -27z m-198 16 c19 -19 14 -29 -8 -16 -20 13 -27 28 -12 28 4 0 13 -5
20 -12z m-1720 -20 c19 -19 14 -30 -8 -18 -11 6 -20 15 -20 20 0 14 14 12 28
-2z m1782 -33 c7 -9 10 -18 7 -22 -8 -7 -37 15 -37 28 0 14 16 11 30 -6z m100
-4 c0 -13 -29 -35 -37 -28 -7 8 15 37 28 37 5 0 9 -4 9 -9z m-1805 -39 c-9 -9
-35 8 -35 24 0 16 2 16 20 -1 11 -10 18 -20 15 -23z m1759 -8 c9 -3 16 -13 16
-22 0 -12 -3 -13 -12 -4 -9 9 -16 8 -30 -5 -15 -13 -18 -14 -18 -2 0 8 5 20
12 27 14 14 12 14 32 6z m-1717 -33 c7 -10 9 -22 6 -25 -6 -6 -32 23 -33 37 0
14 15 7 27 -12z m1783 -26 c7 -9 10 -18 7 -22 -8 -7 -37 15 -37 28 0 14 16 11
30 -6z m-140 -4 c0 -13 -29 -35 -37 -28 -7 8 15 37 28 37 5 0 9 -4 9 -9z
m-1600 -52 c0 -11 -4 -17 -10 -14 -5 3 -10 15 -10 26 0 11 5 17 10 14 6 -3 10
-15 10 -26z m1540 3 c0 -4 -9 -13 -20 -20 -22 -13 -27 -3 -8 16 14 14 28 16
28 4z m260 -7 c7 -9 10 -18 7 -22 -8 -7 -37 15 -37 28 0 14 16 11 30 -6z
m-342 -51 c-9 -9 -21 -13 -28 -9 -14 9 5 25 30 25 12 0 12 -3 -2 -16z m392 -9
c7 -9 10 -18 7 -22 -8 -7 -37 15 -37 28 0 14 16 11 30 -6z m-465 -31 c-10 -7
-22 -11 -28 -7 -6 3 -3 11 8 19 10 7 22 11 28 7 6 -3 3 -11 -8 -19z m-69 -29
c-23 -17 -36 -19 -36 -6 0 11 18 19 40 20 11 0 10 -3 -4 -14z m598 -27 c-8
-12 -34 11 -34 30 0 13 3 12 20 -3 11 -10 17 -22 14 -27z m-664 3 c0 -12 -39
-25 -48 -16 -7 7 17 25 36 25 6 0 12 -4 12 -9z m-80 -30 c0 -12 -30 -22 -43
-14 -7 4 -3 9 9 14 26 10 34 10 34 0z m789 -27 c3 -16 1 -17 -13 -5 -19 16
-21 34 -3 29 6 -3 14 -13 16 -24z m-864 -5 c-8 -12 -45 -12 -45 0 0 10 30 20
43 14 4 -3 5 -9 2 -14z m-1285 -229 c0 -5 -12 -10 -26 -10 -14 0 -23 4 -19 10
3 6 15 10 26 10 10 0 19 -4 19 -10z m-80 -10 c0 -5 -15 -10 -32 -10 -25 0 -29
3 -18 10 20 13 50 13 50 0z m-85 -10 c4 -6 -5 -10 -19 -10 -14 0 -26 5 -26 10
0 6 9 10 19 10 11 0 23 -4 26 -10z m-81 -9 c3 -5 -6 -11 -19 -14 -29 -5 -45 9
-18 16 29 8 32 7 37 -2z m-93 -23 c-13 -4 -28 -5 -34 -1 -7 4 -2 10 13 13 33
9 50 -1 21 -12z m-71 -8 c0 -5 -12 -10 -26 -10 -14 0 -23 4 -19 10 3 6 15 10
26 10 10 0 19 -4 19 -10z m-80 -9 c0 -12 -39 -21 -45 -11 -3 5 3 11 12 13 29
8 33 7 33 -2z m-80 -21 c0 -5 -12 -10 -27 -10 -22 0 -25 2 -13 10 20 13 40 13
40 0z m840 -31 c0 -10 -4 -19 -10 -19 -5 0 -10 12 -10 26 0 14 4 23 10 19 6
-3 10 -15 10 -26z m-920 12 c0 -11 -31 -24 -39 -16 -3 3 1 10 9 15 19 12 30
12 30 1z m1900 -30 c0 -16 -4 -40 -9 -53 -10 -26 -174 -203 -201 -218 -22 -12
-65 2 -73 23 -9 25 11 82 39 108 14 13 32 39 40 58 18 43 42 61 74 55 17 -4
39 4 70 25 25 17 48 31 53 31 4 0 7 -13 7 -29z m-1984 -6 c-23 -17 -36 -19
-36 -6 0 11 18 19 40 20 11 0 10 -3 -4 -14z m-80 -41 c-11 -7 -22 -11 -25 -8
-3 3 3 12 13 20 11 7 22 11 25 8 3 -3 -3 -12 -13 -20z m1084 -13 c0 -11 -4
-23 -10 -26 -6 -4 -10 5 -10 19 0 14 5 26 10 26 6 0 10 -9 10 -19z m-1140 -10
c0 -10 -24 -21 -43 -21 -7 0 -3 7 7 15 22 17 36 19 36 6z m-70 -40 c0 -12 -39
-25 -48 -16 -7 7 17 25 36 25 6 0 12 -4 12 -9z m1210 -36 c0 -14 -4 -25 -10
-25 -5 0 -10 11 -10 25 0 14 5 25 10 25 6 0 10 -11 10 -25z m-1294 -10 c-23
-17 -36 -19 -36 -6 0 11 18 19 40 20 11 0 10 -3 -4 -14z m1294 -70 c0 -14 -4
-25 -10 -25 -5 0 -10 11 -10 25 0 14 5 25 10 25 6 0 10 -11 10 -25z m0 -80 c0
-14 -4 -25 -10 -25 -5 0 -10 11 -10 25 0 14 5 25 10 25 6 0 10 -11 10 -25z m0
-86 c0 -10 -4 -19 -10 -19 -5 0 -10 12 -10 26 0 14 4 23 10 19 6 -3 10 -15 10
-26z m0 -79 c0 -10 -4 -22 -10 -25 -6 -4 -10 7 -10 25 0 18 4 29 10 25 6 -3
10 -15 10 -25z m-4 -76 c-3 -9 -6 -20 -6 -25 0 -6 -4 -8 -9 -5 -12 8 -2 46 11
46 6 0 7 -7 4 -16z m-6 -89 c0 -14 -4 -25 -10 -25 -5 0 -10 11 -10 25 0 14 5
25 10 25 6 0 10 -11 10 -25z m0 -80 c0 -14 -4 -25 -10 -25 -5 0 -10 11 -10 25
0 14 5 25 10 25 6 0 10 -11 10 -25z m-7 -85 c-3 -11 -10 -20 -15 -20 -6 0 -7
7 -4 16 3 9 6 20 6 25 0 6 4 8 9 5 5 -3 7 -15 4 -26z m-3 -75 c0 -14 -4 -25
-10 -25 -11 0 -14 33 -3 43 11 11 13 8 13 -18z m-4 -81 c-3 -9 -6 -20 -6 -25
0 -6 -4 -8 -9 -5 -12 8 -2 46 11 46 6 0 7 -7 4 -16z m-6 -89 c0 -14 -4 -25
-10 -25 -5 0 -10 11 -10 25 0 14 5 25 10 25 6 0 10 -11 10 -25z"/>
<path d="M5585 5487 c-31 -17 -48 -39 -77 -94 -20 -39 -42 -96 -49 -126 l-12
-56 32 -33 c30 -31 35 -32 104 -31 182 3 267 63 267 188 0 134 -147 219 -265
152z"/>
<path d="M735 5185 c24 -36 52 -88 62 -115 10 -28 20 -50 23 -50 3 0 32 27 64
59 l59 59 -44 12 c-47 13 -128 51 -171 81 -14 11 -29 19 -32 19 -3 0 14 -29
39 -65z"/>
<path d="M5390 5173 c1 -5 11 -21 24 -37 32 -38 54 -25 26 15 -19 26 -51 40
-50 22z"/>
<path d="M5370 5155 c0 -14 47 -71 53 -65 3 3 -8 21 -24 40 -15 19 -29 31 -29
25z"/>
<path d="M5651 4995 c44 -59 54 -64 44 -22 -9 33 -49 77 -70 77 -11 0 -4 -16
26 -55z"/>
<path d="M978 4983 l-57 -58 16 -30 c9 -16 21 -47 28 -67 l11 -38 104 105
c100 100 103 105 75 105 -17 0 -50 9 -74 20 -24 11 -44 20 -45 20 -1 0 -27
-26 -58 -57z"/>
<path d="M5525 5030 c-7 -11 -6 -14 59 -103 53 -71 53 -72 75 -58 11 7 0 27
-48 90 -61 80 -74 91 -86 71z"/>
<path d="M5470 4925 c-11 -41 -11 -48 5 -65 13 -14 31 -20 62 -20 23 0 43 2
43 5 0 5 -91 125 -95 125 -1 0 -8 -20 -15 -45z"/>
<path d="M1180 4947 c0 -2 15 -16 33 -33 l32 -29 -29 33 c-28 30 -36 37 -36
29z"/>
<path d="M1180 4905 c13 -14 26 -25 28 -25 3 0 -5 11 -18 25 -13 14 -26 25
-28 25 -3 0 5 -11 18 -25z"/>
<path d="M1170 4875 c13 -14 26 -25 28 -25 3 0 -5 11 -18 25 -13 14 -26 25
-28 25 -3 0 5 -11 18 -25z"/>
<path d="M1120 4887 c0 -2 15 -16 33 -33 l32 -29 -29 33 c-28 30 -36 37 -36
29z"/>
<path d="M1100 4867 c0 -2 15 -16 33 -33 l32 -29 -29 33 c-28 30 -36 37 -36
29z"/>
<path d="M5426 4843 c-4 -9 -2 -21 4 -27 8 -8 9 -5 4 9 -7 18 -6 18 9 6 18
-14 20 -12 11 13 -8 21 -20 20 -28 -1z"/>
<path d="M1080 4847 c0 -2 15 -16 33 -33 l32 -29 -29 33 c-28 30 -36 37 -36
29z"/>
<path d="M1075 4810 c10 -11 20 -20 23 -20 3 0 -3 9 -13 20 -10 11 -20 20 -23
20 -3 0 3 -9 13 -20z"/>
<path d="M1244 4802 c-55 -9 -89 -95 -54 -137 56 -68 174 -11 155 75 -9 42
-54 70 -101 62z m71 -32 c43 -48 10 -120 -55 -120 -51 0 -75 28 -71 83 3 51
90 77 126 37z"/>
<path d="M1443 4734 c3 -5 -39 -53 -92 -107 -54 -53 -95 -99 -93 -102 3 -3 27
19 54 48 27 28 72 75 99 103 36 37 47 54 38 59 -7 5 -10 4 -6 -1z"/>
<path d="M5097 4729 c-17 -10 -16 -12 7 -30 13 -10 30 -19 38 -19 8 -1 7 -4
-4 -11 -22 -12 -24 -31 -3 -23 8 4 15 1 15 -6 0 -16 -43 -57 -70 -65 -11 -3
-20 -11 -20 -16 0 -16 16 -10 53 19 20 15 46 34 58 42 21 15 21 17 6 45 -16
30 -52 75 -59 75 -1 0 -11 -5 -21 -11z"/>
<path d="M4910 4702 c0 -4 5 -13 11 -19 6 -6 8 -16 4 -23 -5 -8 -11 -6 -20 7
-7 10 -16 15 -20 12 -3 -4 1 -13 9 -22 8 -8 12 -17 9 -21 -17 -17 7 -3 32 18
24 21 27 27 16 40 -14 17 -41 22 -41 8z"/>
<path d="M5009 4663 c-13 -16 -12 -17 4 -4 16 13 21 21 13 21 -2 0 -10 -8 -17
-17z"/>
<path d="M5095 4670 c-3 -6 1 -7 9 -4 18 7 21 14 7 14 -6 0 -13 -4 -16 -10z"/>
<path d="M4861 4647 c-6 -8 -8 -17 -4 -20 12 -12 19 -7 19 13 0 24 0 24 -15 7z"/>
<path d="M5046 4652 c-8 -13 30 -59 40 -49 5 4 4 11 -2 15 -6 4 -15 15 -21 26
-6 11 -13 14 -17 8z"/>
<path d="M5030 4621 c0 -5 7 -15 17 -22 15 -13 15 -12 4 9 -12 23 -21 28 -21
13z"/>
<path d="M4945 4590 c-7 -11 8 -41 30 -60 26 -22 27 -4 1 34 -13 20 -27 32
-31 26z"/>
<path d="M5076 4511 c-4 -5 -1 -11 6 -13 7 -3 9 -12 5 -23 -7 -17 -8 -17 -22
1 -11 15 -14 16 -15 4 0 -8 4 -21 9 -28 6 -10 10 -10 21 3 7 8 19 15 26 15 17
0 17 5 4 31 -11 20 -25 25 -34 10z"/>
<path d="M6255 4480 c-3 -6 1 -7 9 -4 18 7 21 14 7 14 -6 0 -13 -4 -16 -10z"/>
<path d="M1370 4445 c-8 -9 -8 -15 -2 -15 12 0 26 19 19 26 -2 2 -10 -2 -17
-11z"/>
<path d="M5010 4451 c0 -5 5 -13 10 -16 6 -3 10 -2 10 4 0 5 -4 13 -10 16 -5
3 -10 2 -10 -4z"/>
<path d="M6165 4450 c3 -5 8 -10 11 -10 2 0 4 5 4 10 0 6 -5 10 -11 10 -5 0
-7 -4 -4 -10z"/>
<path d="M361 4363 c-11 -49 -30 -119 -41 -158 -24 -82 -36 -155 -22 -140 5 6
27 87 50 181 23 95 45 179 48 188 3 9 2 16 -4 16 -6 0 -20 -39 -31 -87z"/>
<path d="M197 4405 c-6 -35 -4 -40 10 -23 6 7 7 22 3 33 -6 17 -8 15 -13 -10z"/>
<path d="M5773 4413 c-19 -7 -16 -31 14 -110 23 -61 31 -73 50 -73 13 0 23 1
23 3 0 2 -11 37 -25 77 -25 72 -27 107 -4 56 16 -35 27 -33 21 4 -3 21 -10 30
-23 30 -10 0 -21 5 -24 10 -7 11 -13 11 -32 3z m31 -84 c-3 -5 -1 -9 3 -9 5 0
14 -15 21 -33 14 -40 15 -47 4 -47 -10 0 -37 79 -33 98 1 6 -2 12 -6 12 -5 0
-9 12 -10 28 -2 26 -2 26 12 -7 8 -18 12 -37 9 -42z"/>
<path d="M5982 4402 c-53 -17 -51 -26 2 -10 31 10 39 9 47 -3 5 -8 9 -9 9 -4
0 27 -16 32 -58 17z"/>
<path d="M5870 4376 c0 -2 7 -19 15 -37 14 -34 20 -23 9 19 -5 18 -24 33 -24
18z"/>
<path d="M5915 4369 c-4 -6 -5 -12 -2 -15 2 -3 7 2 10 11 7 17 1 20 -8 4z"/>
<path d="M183 4339 c-1 -10 2 -19 8 -19 11 0 12 27 1 34 -4 2 -9 -4 -9 -15z"/>
<path d="M5687 4323 c-20 -5 -18 -25 4 -31 11 -3 11 -1 -1 8 -12 10 -11 11 8
7 12 -3 22 -1 22 4 0 4 7 6 15 3 8 -4 15 -1 15 5 0 11 -29 13 -63 4z"/>
<path d="M715 4310 c-3 -6 1 -7 9 -4 18 7 21 14 7 14 -6 0 -13 -4 -16 -10z"/>
<path d="M161 4259 c-14 -40 -14 -59 0 -59 5 0 9 8 8 18 -2 9 1 27 5 40 4 13
6 26 3 28 -3 3 -10 -9 -16 -27z"/>
<path d="M5738 4283 c7 -3 16 -2 19 1 4 3 -2 6 -13 5 -11 0 -14 -3 -6 -6z"/>
<path d="M395 4249 c-4 -6 -5 -12 -2 -15 2 -3 7 2 10 11 7 17 1 20 -8 4z"/>
<path d="M1256 4227 c-35 -35 -35 -95 0 -162 42 -80 43 -80 97 -34 56 48 77
85 77 132 0 55 -27 79 -93 85 -50 4 -58 2 -81 -21z m104 -42 c26 -32 -13 -81
-47 -59 -35 22 -23 74 17 74 10 0 23 -7 30 -15z"/>
<path d="M5263 4205 c-118 -30 -156 -45 -118 -45 30 0 265 64 265 72 0 11 -8
9 -147 -27z"/>
<path d="M5398 4193 c7 -3 16 -2 19 1 4 3 -2 6 -13 5 -11 0 -14 -3 -6 -6z"/>
<path d="M141 4174 c0 -11 3 -14 6 -6 3 7 2 16 -1 19 -3 4 -6 -2 -5 -13z"/>
<path d="M5350 4180 c-8 -5 -10 -10 -5 -10 6 0 17 5 25 10 8 5 11 10 5 10 -5
0 -17 -5 -25 -10z"/>
<path d="M4835 4168 c-53 -28 -60 -94 -20 -175 38 -76 45 -79 93 -38 87 75
107 152 51 199 -33 28 -88 34 -124 14z m85 -53 c26 -32 -13 -81 -47 -59 -35
22 -23 74 17 74 10 0 23 -7 30 -15z"/>
<path d="M5342 4147 c-45 -16 -81 -31 -80 -33 6 -6 178 51 178 59 0 10 -3 9
-98 -26z"/>
<path d="M5265 4150 c-13 -6 -15 -9 -5 -9 8 0 22 4 30 9 18 12 2 12 -25 0z"/>
<path d="M5200 4095 c-19 -7 -28 -14 -20 -14 8 0 29 6 45 14 39 17 21 18 -25
0z"/>
<path d="M500 4061 c0 -6 4 -13 10 -16 6 -3 7 1 4 9 -7 18 -14 21 -14 7z"/>
<path d="M1120 4039 c0 -5 5 -7 10 -4 6 3 10 8 10 11 0 2 -4 4 -10 4 -5 0 -10
-5 -10 -11z"/>
<path d="M3544 3997 c-8 -23 23 -60 78 -90 50 -28 62 -47 28 -47 -12 0 -17 -5
-14 -14 3 -7 -8 -28 -24 -45 -26 -29 -31 -31 -55 -20 -39 18 -34 39 8 39 51 0
46 29 -11 65 -25 16 -57 42 -70 58 -25 29 -26 30 -57 15 -18 -9 -46 -13 -64
-11 -28 4 -33 2 -33 -14 0 -19 -28 -53 -45 -53 -12 0 -34 -33 -35 -51 0 -9 -9
-24 -20 -34 -11 -10 -18 -20 -16 -22 2 -2 26 19 52 47 27 29 65 65 86 82 36
28 40 29 74 16 l35 -13 -6 -57 c-7 -58 -7 -58 20 -58 25 0 26 -2 24 -46 -4
-53 15 -74 63 -74 17 0 33 -8 40 -20 7 -11 23 -20 35 -20 12 0 25 -4 28 -10
11 -17 35 -11 35 9 0 10 7 24 15 31 17 14 39 11 138 -19 53 -16 73 -18 92 -9
30 14 72 -10 81 -47 10 -39 19 -29 20 23 1 26 5 70 9 99 l7 52 -43 -1 c-79 -2
-153 11 -166 29 -7 9 -13 29 -13 44 0 29 -23 55 -40 44 -5 -3 -10 -25 -10 -48
0 -57 -11 -73 -39 -58 -11 7 -21 16 -21 21 0 5 -11 26 -25 46 -14 20 -25 45
-25 55 0 9 -14 28 -30 41 -17 13 -46 36 -65 51 -29 24 -36 26 -41 14z"/>
<path d="M2926 3797 c3 -10 9 -15 12 -12 3 3 0 11 -7 18 -10 9 -11 8 -5 -6z"/>
<path d="M2954 3784 c2 -16 43 -53 59 -54 4 0 7 5 7 10 0 6 -7 10 -16 10 -8 0
-13 3 -11 8 3 4 -5 15 -18 24 -20 16 -23 16 -21 2z"/>
<path d="M3030 3730 c0 -5 5 -10 10 -10 6 0 10 5 10 10 0 6 -4 10 -10 10 -5 0
-10 -4 -10 -10z"/>
<path d="M3216 3665 c-3 -8 -1 -15 4 -15 13 0 22 18 11 24 -5 3 -11 -1 -15 -9z"/>
<path d="M3260 3645 c0 -8 5 -15 10 -15 6 0 10 7 10 15 0 8 -4 15 -10 15 -5 0
-10 -7 -10 -15z"/>
<path d="M3305 3631 c-3 -5 -1 -12 4 -15 5 -3 11 1 15 9 6 16 -9 21 -19 6z"/>
<path d="M3350 3611 c0 -25 6 -27 13 -6 4 8 2 17 -3 20 -6 4 -10 -3 -10 -14z"/>
<path d="M3396 3595 c-3 -8 -1 -15 4 -15 6 0 10 7 10 15 0 8 -2 15 -4 15 -2 0
-6 -7 -10 -15z"/>
<path d="M3435 3581 c-6 -11 9 -23 19 -14 9 9 7 23 -3 23 -6 0 -12 -4 -16 -9z"/>
<path d="M3480 3554 c0 -8 5 -12 10 -9 6 3 10 10 10 16 0 5 -4 9 -10 9 -5 0
-10 -7 -10 -16z"/>
<path d="M3526 3551 c-4 -7 -5 -15 -2 -18 9 -9 19 4 14 18 -4 11 -6 11 -12 0z"/>
<path d="M3570 3524 c0 -8 5 -12 10 -9 6 3 10 10 10 16 0 5 -4 9 -10 9 -5 0
-10 -7 -10 -16z"/>
<path d="M3610 3511 c0 -6 5 -13 10 -16 6 -3 10 1 10 9 0 9 -4 16 -10 16 -5 0
-10 -4 -10 -9z"/>
<path d="M3655 3490 c-3 -5 -2 -10 4 -10 5 0 13 5 16 10 3 6 2 10 -4 10 -5 0
-13 -4 -16 -10z"/>
<path d="M3700 3474 c0 -8 5 -12 10 -9 6 3 10 10 10 16 0 5 -4 9 -10 9 -5 0
-10 -7 -10 -16z"/>
<path d="M3830 3455 c-19 -19 -52 -47 -74 -62 l-39 -28 69 -12 c95 -16 182
-17 166 -1 -7 7 -12 16 -12 20 0 10 56 3 111 -14 26 -7 42 -7 58 1 19 11 21 9
21 -21 0 -27 11 -42 62 -90 34 -31 64 -56 66 -54 7 7 -49 107 -63 112 -8 3
-21 28 -30 54 -20 61 -42 82 -59 57 -12 -15 -22 -13 -119 28 -58 25 -110 45
-115 45 -4 0 -23 -16 -42 -35z"/>
<path d="M3746 3461 c-4 -7 -5 -15 -2 -18 9 -9 19 4 14 18 -4 11 -6 11 -12 0z"/>
<path d="M3188 3305 c-34 -19 -48 -44 -48 -85 0 -29 32 -103 63 -145 14 -19
16 -18 60 18 54 44 91 114 82 154 -13 56 -102 89 -157 58z m87 -80 c0 -24 -5
-31 -24 -33 -32 -5 -54 23 -40 50 7 13 19 18 37 16 23 -2 27 -8 27 -33z"/>
<path d="M1000 2523 c1 -71 167 -472 239 -576 17 -25 31 -49 31 -54 0 -4 -21
-19 -46 -33 l-47 -24 -15 22 c-17 26 -39 29 -46 5 -3 -10 -24 -28 -46 -41 -35
-20 -41 -21 -46 -7 -9 24 -24 18 -24 -10 0 -14 -9 -30 -20 -37 -11 -7 -20 -16
-20 -20 0 -17 64 -111 68 -100 5 16 65 15 80 0 10 -10 11 -6 6 18 -5 28 -2 32
35 48 22 10 47 16 57 12 13 -5 15 -1 12 21 -3 16 -8 35 -12 43 -4 10 6 22 33
38 22 12 44 22 49 22 5 0 33 -35 63 -77 60 -88 163 -209 229 -270 44 -41 45
-41 57 -20 18 32 16 71 -6 99 -28 35 -54 144 -48 203 3 28 -2 81 -9 118 -8 37
-12 72 -10 76 3 4 1 65 -3 135 -8 120 -10 129 -36 156 -15 16 -41 34 -59 41
-46 18 -66 39 -88 89 -11 25 -28 54 -38 65 -10 11 -23 32 -29 48 l-11 27 -150
0 c-136 0 -150 -2 -150 -17z m127 -709 c5 -16 -53 -44 -66 -31 -8 8 -3 16 17
29 28 18 43 19 49 2z m28 -59 c2 -14 0 -26 -3 -26 -38 -7 -54 -4 -63 14 -7 12
-7 17 -1 13 5 -3 13 1 16 10 4 9 13 14 21 10 8 -3 15 0 15 6 0 21 13 -1 15
-27z m455 -214 c0 -10 -30 -24 -37 -17 -3 3 -2 9 2 15 8 13 35 15 35 2z"/>
<path d="M3791 394 c0 -11 3 -14 6 -6 3 7 2 16 -1 19 -3 4 -6 -2 -5 -13z"/>
<path d="M3547 369 c4 -13 8 -18 11 -10 2 7 -1 18 -6 23 -8 8 -9 4 -5 -13z"/>
<path d="M3261 334 c0 -11 3 -14 6 -6 3 7 2 16 -1 19 -3 4 -6 -2 -5 -13z"/>
<path d="M3928 319 c-23 -25 -13 -24 19 1 14 11 19 20 12 19 -8 0 -22 -9 -31
-20z"/>
<path d="M3860 269 c-17 -13 -18 -17 -5 -10 33 17 51 31 40 31 -5 0 -21 -10
-35 -21z"/>
<path d="M3783 214 l-28 -25 33 22 c17 13 32 24 32 26 0 8 -11 1 -37 -23z"/>
<path d="M2970 223 c8 -3 27 -12 43 -20 15 -7 27 -11 27 -9 0 8 -58 36 -72 35
-9 0 -8 -2 2 -6z"/>
<path d="M3730 179 c0 -5 5 -7 10 -4 6 3 10 8 10 11 0 2 -4 4 -10 4 -5 0 -10
-5 -10 -11z"/>
<path d="M3150 150 c8 -5 20 -10 25 -10 6 0 3 5 -5 10 -8 5 -19 10 -25 10 -5
0 -3 -5 5 -10z"/>
<path d="M3639 113 c-13 -16 -12 -17 4 -4 16 13 21 21 13 21 -2 0 -10 -8 -17
-17z"/>
<path d="M3599 83 c-13 -16 -12 -17 4 -4 9 7 17 15 17 17 0 8 -8 3 -21 -13z"/>
<path d="M3529 33 c-13 -16 -12 -17 4 -4 16 13 21 21 13 21 -2 0 -10 -8 -17
-17z"/>
</g>
</svg>
